<svg xmlns="http://www.w3.org/2000/svg" width="24" height="24" fill="none" xmlns:v="https://vecta.io/nano"><path fill-rule="evenodd" d="M14.813 4.492H9.188V2.93a.95.95 0 0 0-.937-.937c-.547 0-.937.43-.937.938v1.563H5.75c-1.406 0-2.5 1.133-2.5 2.5v12.5c0 1.406 1.094 2.5 2.5 2.5h12.5c1.367 0 2.5-1.094 2.5-2.5v-12.5a2.52 2.52 0 0 0-2.5-2.5h-1.562V2.93a.95.95 0 0 0-.937-.937c-.547 0-.937.43-.937.938v1.563zM5.75 20.117c-.352 0-.625-.273-.625-.625v-10h13.75v10c0 .352-.312.625-.625.625H5.75zm7.024-8.617a.5.5 0 1 0-1 0v.552a2.89 2.89 0 0 0-.675.172c-.508.202-.955.589-1.067 1.186-.062.333-.036.645.095.925a1.52 1.52 0 0 0 .559.619c.405.265.95.41 1.394.529l.004.001.044.011c.508.134.9.244 1.156.411.116.076.173.145.203.208a.52.52 0 0 1 .02.319c-.034.188-.155.344-.419.451-.278.114-.689.156-1.187.083a5.62 5.62 0 0 1-1.175-.337.5.5 0 0 0-.659.253.5.5 0 0 0 .253.659c.422.188 1.048.352 1.43.411h.003l.02.003v.545a.5.5 0 1 0 1 0v-.519a2.61 2.61 0 0 0 .694-.172c.508-.208.917-.605 1.025-1.198.061-.333.033-.645-.1-.925a1.52 1.52 0 0 0-.561-.617c-.402-.263-.942-.406-1.387-.525l-.013-.004-.045-.012c-.506-.134-.897-.244-1.152-.411-.114-.077-.172-.145-.2-.206a.51.51 0 0 1-.019-.319c.028-.153.15-.319.453-.439s.734-.169 1.223-.097l.742.136a.5.5 0 0 0 .581-.402.5.5 0 0 0-.402-.581l-.75-.138-.091-.014V11.5z" fill="#fff"/></svg>