<svg xmlns="http://www.w3.org/2000/svg" viewBox="0 0 175 57" xmlns:v="https://vecta.io/nano"><path d="M60 2l12 12-12 12-12-12zm28 0l12 12-12 12-12-12zm28 0l12 12-12 12-12-12zM18 16l12 12-12 12L6 28zm28 0l12 12-12 12-12-12zm28 0l12 12-12 12-12-12zm28 0l12 12-12 12-12-12zm28 0l12 12-12 12-12-12zm28 0l12 12-12 12-12-12zM60 30l12 12-12 12-12-12zm28 0l12 12-12 12-12-12zm28 0l12 12-12 12-12-12z" fill="#bdbdc5"/><path stroke="#000" stroke-width=".5" d="M7 27h26l13 13 14-14 14 14 28-28 14 14 14-14 15 15h26v3h-27l-14-14-14 14-14-14-28 28-14-14-14 14-14-14H7z" fill="#ffd652"/><path d="M3 26h5v5H3zm165 0h5v5h-5z"/></svg>