<svg fill="none" xmlns="http://www.w3.org/2000/svg" viewBox="0 0 228 87"><path d="M0 13.9C0 6.2 6.2 0 13.9 0H214c7.7 0 13.9 6.2 13.9 13.9V44c0 7.7-6.2 13.9-13.9 13.9H14C6.2 58 0 51.8 0 44.1V14Z" fill="#000"/><path fill-rule="evenodd" clip-rule="evenodd" d="M214.1 2H14C7.3 2 2 7.3 2 13.9V44c0 6.7 5.3 12 11.9 12H214c6.6 0 11.9-5.3 11.9-11.9V14c.1-6.7-5.2-12-11.8-12ZM14 0C6.2 0 0 6.2 0 13.9V44c0 7.8 6.2 14 13.9 14H214c7.7 0 13.9-6.2 13.9-13.9V14c.1-7.8-6.1-14-13.8-14H14Z" fill="#fff"/><path d="M48 62a10 10 0 0 1 10-10h112a10 10 0 0 1 10 10v15a10 10 0 0 1-10 10H58a10 10 0 0 1-10-10V62Z" fill="#000"/><path fill-rule="evenodd" clip-rule="evenodd" d="M170 54H58a8 8 0 0 0-8 8v15a8 8 0 0 0 8 8h112a8 8 0 0 0 8-8V62a8 8 0 0 0-8-8ZM58 52a10 10 0 0 0-10 10v15a10 10 0 0 0 10 10h112a10 10 0 0 0 10-10V62a10 10 0 0 0-10-10H58ZM42 35.3a8.1 8.1 0 0 0 0-11.4l-7.7-7.7a1.4 1.4 0 0 0-2 2l7.6 7.7.2.2a5.2 5.2 0 0 1-.2 7.2L33.2 40a1.4 1.4 0 0 0 2 2l6.8-6.7Zm-3.7-3a3.9 3.9 0 0 0 .3-.4 3.8 3.8 0 0 0-.3-5l-10-10a3.8 3.8 0 0 0-2.8-1.2h-8.9a2.9 2.9 0 0 0-2.9 2.9v9c0 1 .4 2 1.2 2.6l10 10a3.8 3.8 0 0 0 5.4 0l8-8Zm-22-3.4 10 10c.7.7 1.9.7 2.6 0l8-8c.8-.7.8-2 0-2.7l-10-10a2 2 0 0 0-1.4-.6h-8.9a1 1 0 0 0-1 1v9c0 .4.3 1 .6 1.3Z" fill="#fff"/><path d="M59 38.1h-6v-15h5.5c2.8 0 4.7 1.3 4.7 4 0 1.6-.7 2.6-1.8 3.2 1.1.4 2.6 1.4 2.6 3.7 0 2.6-1.7 4.1-5 4.1Zm-3.2-12.5v3.7h2.5c1.3 0 2.2-.6 2.2-1.8 0-1.4-.9-2-2.2-2h-2.5Zm0 6v4h3c1.5 0 2.3-.6 2.3-2 0-1.3-1-2-2.3-2h-3Zm13.5 6.7c-2.2 0-3.4-1.4-3.4-3.6V22h2.7v12.4c0 1 .6 1.5 1.3 1.5l.9-.1.3 2.2-1.8.3Zm7.2 0c-3 0-5-2.4-5-5.5s2-5.5 5-5.5c1.6 0 2.8.6 3.5 1.5v-1.3h2.7v10.6H80v-1.3c-.7.8-1.9 1.5-3.5 1.5ZM77 36c1.7 0 3-1.3 3-3.1s-1.3-3.2-3-3.2c-1.6 0-3 1.4-3 3.2a3 3 0 0 0 3 3.1Zm13 2.3a5.4 5.4 0 0 1-5.5-5.5c0-3.1 2.3-5.5 5.6-5.5 2 0 3.6.9 4.5 2.3l-2 1.5a3 3 0 0 0-5.5 1.7 3 3 0 0 0 5.6 1.7l2 1.5a5.3 5.3 0 0 1-4.6 2.3Zm8.8-.2h-2.7v-16h2.7v9.4h1.8l2.8-4h3.3l-3.8 5.2 3.8 5.4h-3.2l-3-4h-1.7v4Zm17 0h-2.7v-15h2.8l6.6 10.3V23.1h2.7v15h-2.8l-6.6-10.3v10.3Zm17.2.2a5.5 5.5 0 0 1-5.7-5.5c0-3 2.4-5.5 5.6-5.5 3.3 0 5.8 2.4 5.8 5.5s-2.5 5.5-5.8 5.5Zm0-2.3a3 3 0 0 0 3-3.2 3 3 0 0 0-3-3.2c-1.8 0-3 1.4-3 3.2 0 1.8 1.2 3.2 3 3.2Zm13 2.1h-3l-4-10.6h2.9l2.6 8 2.5-8h2.9l-4 10.6Zm9.7-10.8a5 5 0 0 1 5.2 5.3c0 .4 0 .8-.2 1.2H153a3 3 0 0 0 2.9 2.2c1.3 0 2.1-.5 2.7-1.2l1.6 1.5c-1 1.3-2.5 2-4.4 2-3 0-5.6-2.1-5.6-5.5 0-3.2 2.3-5.5 5.5-5.5Zm0 2.2c-1.5 0-2.5 1-2.8 2.3h5.3c-.3-1.4-1.2-2.3-2.5-2.3Zm9.5 8.6h-2.7V27.5h2.7v1.3a4 4 0 0 1 3.2-1.5 4 4 0 0 1 3.4 1.7 5 5 0 0 1 3.8-1.7c2.5 0 4.4 1.7 4.4 5.2v5.6h-2.6v-5.3c0-2.2-1-3.2-2.3-3.2-1.4 0-2.5 1.1-2.5 3.2V38H170v-5.3c0-2.2-1-3.2-2.3-3.2-1.4 0-2.5 1.1-2.5 3.2V38Zm23.3.2c-1.6 0-2.8-.7-3.5-1.5v1.3h-2.7v-16h2.7v6.7c.7-.9 1.9-1.5 3.5-1.5 3 0 5 2.4 5 5.5s-2 5.5-5 5.5Zm-.6-2.4c1.7 0 3-1.3 3-3.1s-1.3-3.2-3-3.2c-1.6 0-3 1.4-3 3.2a3 3 0 0 0 3 3.1Zm12.1-8.6c3 0 5.3 2 5.3 5.3 0 .4 0 .8-.2 1.2h-7.7a3 3 0 0 0 3 2.2c1.2 0 2-.5 2.6-1.2l1.6 1.5c-1 1.3-2.4 2-4.3 2-3.2 0-5.6-2.1-5.6-5.5 0-3.2 2.2-5.5 5.4-5.5Zm0 2.2c-1.3 0-2.4 1-2.7 2.3h5.4c-.3-1.4-1.3-2.3-2.6-2.3Zm9.6 8.6H207V27.5h2.7V29c.8-1.2 2-1.7 3.4-1.7h.4V30h-.7c-1.8 0-3 1.2-3 3.5v4.6Z" fill="#fff"/><path fill-rule="evenodd" clip-rule="evenodd" d="m64.7 66.4 5.7 3.3v2.5l-5.7-3.3a1.3 1.3 0 0 0-1.3 0l-5.7 3.3v-2.5l5.7-3.3a1.3 1.3 0 0 1 1.3 0Zm-6 7.2 4.7-2.8a1.4 1.4 0 0 1 1.3 0l4.8 2.8-4.8 2.7a1.3 1.3 0 0 1-1.3 0l-4.7-2.7Zm6-11.6 5.7 3.3v2.5l-5.7-3.3a1.3 1.3 0 0 0-1.3 0l-5.7 3.3v-2.5l5.7-3.3a1.3 1.3 0 0 1 1.3 0" fill="#fff"/><path d="M74.2 64.5a.3.3 0 0 1 .3-.3h3.1l1.3.1 1.2.5a2.5 2.5 0 0 1 1.1 2.2c0 .7-.2 1.3-.6 1.7-.3.4-.8.7-1.3.8a.3.3 0 0 0-.1.5l2.1 3.5a.3.3 0 0 1-.2.5h-1.5a.3.3 0 0 1-.2-.2L77.3 70a.3.3 0 0 0-.3-.2h-.8a.3.3 0 0 0-.3.3v3.6a.3.3 0 0 1-.2.3h-1.2a.3.3 0 0 1-.3-.3v-9.2Zm3.2 4 .7-.2c.2 0 .5 0 .7-.2.2 0 .3-.2.5-.4l.2-.7a1.1 1.1 0 0 0-.7-1 2 2 0 0 0-.6-.3h-2.3v2.7h1.5Zm11.3 2.2-.1.4h-5a1.6 1.6 0 0 0 .6 1.3 2 2 0 0 0 1.3.4c.4 0 .8 0 1-.2l.6-.4a.3.3 0 0 1 .4 0l.7.5a.3.3 0 0 1 0 .4c-.6.7-1.5 1-2.7 1-.4 0-1 0-1.4-.2-.4-.1-.8-.4-1.1-.7l-.8-1-.2-1.5c0-.5 0-1 .2-1.5a3.3 3.3 0 0 1 1.9-1.8 3.7 3.7 0 0 1 2.7 0c.4.1.7.4 1 .7l.7 1 .2 1.6ZM87 70v-.6l-.3-.5-.5-.4-.7-.1c-.5 0-1 .1-1.3.4a1.6 1.6 0 0 0-.6 1.2H87Zm11-2.9c.3 0 .7.1 1 .3.4.1.6.3.8.6l.5.8.1 1V74H99a.3.3 0 0 1-.4-.2v-4c0-.2 0-.4-.2-.6 0-.2-.2-.3-.4-.4l-.6-.2c-.2 0-.5 0-.7.2l-.4.4-.3.6v4a.3.3 0 0 1-.3.3h-1.1a.3.3 0 0 1-.3-.2V70c0-.4-.1-.8-.3-1-.2-.3-.5-.5-1-.5a1.3 1.3 0 0 0-1 .6l-.3.6-.1.6v3.4a.3.3 0 0 1-.3.3h-1a.3.3 0 0 1-.4-.3v-6a.3.3 0 0 1 .3-.4h1a.3.3 0 0 1 .3.3v.8l.3-.5a2.2 2.2 0 0 1 1.8-.8c.5 0 .9.1 1.3.4.3.2.6.5.8.9a2.4 2.4 0 0 1 2.2-1.3m10.5 3.6a.4.4 0 0 1-.1.4.3.3 0 0 1-.3 0h-4.7a1.6 1.6 0 0 0 .6 1.3 2 2 0 0 0 1.3.4c.4 0 .8 0 1-.2l.6-.4a.3.3 0 0 1 .4 0l.7.5a.3.3 0 0 1 0 .4c-.6.7-1.5 1-2.7 1-.4 0-1 0-1.4-.2-.4-.1-.8-.4-1.1-.7a3 3 0 0 1-.8-1l-.2-1.5c0-.5 0-1 .3-1.5a3.2 3.2 0 0 1 1.8-1.8 3.7 3.7 0 0 1 2.7 0c.4.1.7.4 1 .7l.7 1 .2 1.6Zm-1.7-.7v-.6a1.4 1.4 0 0 0-.8-.9l-.7-.1c-.5 0-1 .1-1.3.4a1.6 1.6 0 0 0-.6 1.2h3.4Zm6.7-1-.3-.1-.3-.3a1.7 1.7 0 0 0-1.6 0 .6.6 0 0 0-.4.5.6.6 0 0 0 .4.6c.4 0 .7.2 1 .3l.8.2c.3 0 .5.2.7.4l.5.5c.2.3.2.6.2.9 0 .3 0 .7-.2 1a2 2 0 0 1-.6.7l-.9.3-1 .2c-.6 0-1-.1-1.5-.3l-1-.6-.1-.1a.3.3 0 0 1 0-.3l.7-.6a.3.3 0 0 1 .4 0l.5.3a2 2 0 0 0 1.4.2h.3l.3-.3V72a.6.6 0 0 0-.3-.6l-1.1-.4c-.3 0-.5 0-.8-.2l-.6-.3-.4-.5-.2-.8a2 2 0 0 1 .8-1.6l.9-.4a3.8 3.8 0 0 1 2.4.1l.8.5a.3.3 0 0 1 .1.3v.2l-.7.5-.2.1m5.8.1-.2-.1-.4-.3a1.7 1.7 0 0 0-1.6 0 .6.6 0 0 0-.3.5l.1.3.3.3 1 .3.8.2.7.4.5.5.2.9c0 .3 0 .7-.2 1a2 2 0 0 1-.6.7c-.3.2-.6.3-1 .3l-1 .2-1.5-.3-1-.6v-.1a.3.3 0 0 1 0-.2v-.1l.7-.7h.4l.5.4a2 2 0 0 0 1.4.2h.3l.3-.3V72a.6.6 0 0 0-.3-.6l-1.2-.4c-.2 0-.5 0-.7-.2l-.6-.3c-.2-.2-.4-.3-.5-.6l-.1-.7a1.9 1.9 0 0 1 .8-1.6l.9-.4 1-.2c.4 0 .9.1 1.3.3l1 .5v.4l-.1.2-.7.5-.2.1m6.4 4.1c-.3.3-.5.6-.9.8-.4.2-.8.2-1.2.2h-.9l-.8-.4a1.8 1.8 0 0 1-.8-1.6c0-.5.1-1 .4-1.2l1-.7c.6-.1 1-.3 1.6-.3h1.6v-.2c0-.5-.2-.8-.5-1a2 2 0 0 0-1-.3c-.4 0-.8.1-1 .3a3 3 0 0 0-.7.3.3.3 0 0 1-.4 0l-.5-.6a.3.3 0 0 1 0-.3c.4-.3.8-.6 1.2-.7a4.5 4.5 0 0 1 3 0l.8.6c.3.3.4.6.5 1l.1 1v3.7a.3.3 0 0 1-.3.3h-1.2v-1Zm0-2.2h-1.3l-.8.2-.6.4a.7.7 0 0 0-.3.6l.1.3.3.3.4.1h.4c.6 0 1 0 1.3-.4.3-.3.4-.7.4-1.2v-.3Zm5.3-1.9c0-.7.1-1.4.4-2a4.7 4.7 0 0 1 2.8-2.7 6 6 0 0 1 2-.4 6 6 0 0 1 2.2.4 4.6 4.6 0 0 1 2.8 2.6c.2.7.3 1.4.3 2.2 0 .7-.1 1.4-.4 2a4.8 4.8 0 0 1-2.7 2.7c-.7.3-1.4.4-2.2.4-.7 0-1.4-.1-2-.4a4.8 4.8 0 0 1-2.8-2.7c-.3-.6-.4-1.3-.4-2Zm1.9 0c0 .5 0 1 .2 1.5l.7 1.1c.3.4.7.6 1.1.8a3.2 3.2 0 0 0 2.7 0 3.2 3.2 0 0 0 1.8-1.9c.2-.5.2-1 .2-1.4 0-.5 0-1-.2-1.5-.2-.4-.4-.8-.7-1a3.2 3.2 0 0 0-2.4-1.1c-.5 0-1 0-1.4.3-.4.1-.8.4-1 .7-.4.3-.6.7-.8 1.1a4 4 0 0 0-.2 1.5m10.2-1.8h1l.3.1v1c.2-.4.5-.7.8-.9.4-.2.9-.4 1.3-.3.4 0 .8 0 1.1.2.3.1.6.3.8.6l.4.8.2 1v3.9a.3.3 0 0 1-.3.3h-1.1a.3.3 0 0 1-.3-.3v-4l-.2-.6-.4-.4-.6-.2c-.3 0-.5 0-.7.2-.2 0-.4.2-.5.4l-.3.6v4a.3.3 0 0 1-.4.3h-1a.3.3 0 0 1-.3-.3v-6a.3.3 0 0 1 .2-.4Zm7.5-3.8h1a.3.3 0 0 1 .3.3v10a.3.3 0 0 1-.2.2h-1.1a.3.3 0 0 1-.3-.3v-10a.3.3 0 0 1 .2-.2Zm2.4 1.5a1 1 0 0 1 .3-.6 1 1 0 0 1 .7-.3c.3 0 .6 0 .8.3a1 1 0 0 1 .3.7 1 1 0 0 1-.3.7c-.2.2-.5.3-.8.3a1 1 0 0 1-1-.6V65Zm.5 2.3h1l.3.1V74h-1.3a.3.3 0 0 1-.3-.2v-6a.3.3 0 0 1 .3-.4m3-.1h1a.3.3 0 0 1 .3.3v.8c.2-.4.5-.7.8-.9.4-.2.8-.4 1.3-.3.4 0 .8 0 1.1.2a2.2 2.2 0 0 1 1.2 1.4l.2 1v3.9a.3.3 0 0 1-.3.3h-1.1a.3.3 0 0 1-.3-.3v-4l-.2-.6-.4-.4-.7-.2c-.2 0-.4 0-.6.2-.2 0-.4.2-.5.4l-.3.6-.1.6v3.4a.3.3 0 0 1-.3.3h-1a.3.3 0 0 1-.4-.3v-6a.3.3 0 0 1 .3-.4Zm13.7 3.4v.4h-5a1.6 1.6 0 0 0 .6 1.3 2 2 0 0 0 1.3.4c.3 0 .7 0 1-.2l.5-.4a.3.3 0 0 1 .4 0l.7.5a.3.3 0 0 1 0 .3 3 3 0 0 1-2.6 1.2l-1.5-.3c-.4-.1-.8-.4-1-.7a3 3 0 0 1-.8-1l-.3-1.5c0-.5 0-1 .3-1.5a3.2 3.2 0 0 1 1.8-1.8 3.7 3.7 0 0 1 2.7 0c.4.1.7.4 1 .7l.7 1c.2.6.2 1.1.2 1.6Zm-1.6-.7-.1-.6a1.4 1.4 0 0 0-.8-.9l-.7-.1c-.5 0-1 .1-1.3.4a1.6 1.6 0 0 0-.5 1.2h3.4Z" fill="#fff"/><path fill-rule="evenodd" clip-rule="evenodd" d="m64.7 66.4 5.7 3.3v2.5l-5.7-3.3a1.3 1.3 0 0 0-1.3 0l-5.7 3.3v-2.5l5.7-3.3a1.3 1.3 0 0 1 1.3 0Zm-6 7.2 4.7-2.8a1.4 1.4 0 0 1 1.3 0l4.8 2.8-4.8 2.7a1.3 1.3 0 0 1-1.3 0l-4.7-2.7Zm6-11.6 5.7 3.3v2.5l-5.7-3.3a1.3 1.3 0 0 0-1.3 0l-5.7 3.3v-2.5l5.7-3.3a1.3 1.3 0 0 1 1.3 0" fill="#fff"/><path d="M74.2 64.5a.3.3 0 0 1 .3-.3h3.1l1.3.1 1.2.5a2.5 2.5 0 0 1 1.1 2.2c0 .7-.2 1.3-.6 1.7-.3.4-.8.7-1.3.8a.3.3 0 0 0-.1.5l2.1 3.5a.3.3 0 0 1-.2.5h-1.5a.3.3 0 0 1-.2-.2L77.3 70a.3.3 0 0 0-.3-.2h-.8a.3.3 0 0 0-.3.3v3.6a.3.3 0 0 1-.2.3h-1.2a.3.3 0 0 1-.3-.3v-9.2Zm3.2 4 .7-.2c.2 0 .5 0 .7-.2.2 0 .3-.2.5-.4l.2-.7a1.1 1.1 0 0 0-.7-1 2 2 0 0 0-.6-.3h-2.3v2.7h1.5Zm11.3 2.2-.1.4h-5a1.6 1.6 0 0 0 .6 1.3 2 2 0 0 0 1.3.4c.4 0 .8 0 1-.2l.6-.4a.3.3 0 0 1 .4 0l.7.5a.3.3 0 0 1 0 .4c-.6.7-1.5 1-2.7 1-.4 0-1 0-1.4-.2-.4-.1-.8-.4-1.1-.7l-.8-1-.2-1.5c0-.5 0-1 .2-1.5a3.3 3.3 0 0 1 1.9-1.8 3.7 3.7 0 0 1 2.7 0c.4.1.7.4 1 .7l.7 1 .2 1.6ZM87 70v-.6l-.3-.5-.5-.4-.7-.1c-.5 0-1 .1-1.3.4a1.6 1.6 0 0 0-.6 1.2H87Zm11-2.9c.3 0 .7.1 1 .3.4.1.6.3.8.6l.5.8.1 1V74H99a.3.3 0 0 1-.4-.2v-4c0-.2 0-.4-.2-.6 0-.2-.2-.3-.4-.4l-.6-.2c-.2 0-.5 0-.7.2l-.4.4-.3.6v4a.3.3 0 0 1-.3.3h-1.1a.3.3 0 0 1-.3-.2V70c0-.4-.1-.8-.3-1-.2-.3-.5-.5-1-.5a1.3 1.3 0 0 0-1 .6l-.3.6-.1.6v3.4a.3.3 0 0 1-.3.3h-1a.3.3 0 0 1-.4-.3v-6a.3.3 0 0 1 .3-.4h1a.3.3 0 0 1 .3.3v.8l.3-.5a2.2 2.2 0 0 1 1.8-.8c.5 0 .9.1 1.3.4.3.2.6.5.8.9a2.4 2.4 0 0 1 2.2-1.3m10.5 3.6a.4.4 0 0 1-.1.4.3.3 0 0 1-.3 0h-4.7a1.6 1.6 0 0 0 .6 1.3 2 2 0 0 0 1.3.4c.4 0 .8 0 1-.2l.6-.4a.3.3 0 0 1 .4 0l.7.5a.3.3 0 0 1 0 .4c-.6.7-1.5 1-2.7 1-.4 0-1 0-1.4-.2-.4-.1-.8-.4-1.1-.7a3 3 0 0 1-.8-1l-.2-1.5c0-.5 0-1 .3-1.5a3.2 3.2 0 0 1 1.8-1.8 3.7 3.7 0 0 1 2.7 0c.4.1.7.4 1 .7l.7 1 .2 1.6Zm-1.7-.7v-.6a1.4 1.4 0 0 0-.8-.9l-.7-.1c-.5 0-1 .1-1.3.4a1.6 1.6 0 0 0-.6 1.2h3.4Zm6.7-1-.3-.1-.3-.3a1.7 1.7 0 0 0-1.6 0 .6.6 0 0 0-.4.5.6.6 0 0 0 .4.6c.4 0 .7.2 1 .3l.8.2c.3 0 .5.2.7.4l.5.5c.2.3.2.6.2.9 0 .3 0 .7-.2 1a2 2 0 0 1-.6.7l-.9.3-1 .2c-.6 0-1-.1-1.5-.3l-1-.6-.1-.1a.3.3 0 0 1 0-.3l.7-.6a.3.3 0 0 1 .4 0l.5.3a2 2 0 0 0 1.4.2h.3l.3-.3V72a.6.6 0 0 0-.3-.6l-1.1-.4c-.3 0-.5 0-.8-.2l-.6-.3-.4-.5-.2-.8a2 2 0 0 1 .8-1.6l.9-.4a3.8 3.8 0 0 1 2.4.1l.8.5a.3.3 0 0 1 .1.3v.2l-.7.5-.2.1m5.8.1-.2-.1-.4-.3a1.7 1.7 0 0 0-1.6 0 .6.6 0 0 0-.3.5l.1.3.3.3 1 .3.8.2.7.4.5.5.2.9c0 .3 0 .7-.2 1a2 2 0 0 1-.6.7c-.3.2-.6.3-1 .3l-1 .2-1.5-.3-1-.6v-.1a.3.3 0 0 1 0-.2v-.1l.7-.7h.4l.5.4a2 2 0 0 0 1.4.2h.3l.3-.3V72a.6.6 0 0 0-.3-.6l-1.2-.4c-.2 0-.5 0-.7-.2l-.6-.3c-.2-.2-.4-.3-.5-.6l-.1-.7a1.9 1.9 0 0 1 .8-1.6l.9-.4 1-.2c.4 0 .9.1 1.3.3l1 .5v.4l-.1.2-.7.5-.2.1m6.4 4.1c-.3.3-.5.6-.9.8-.4.2-.8.2-1.2.2h-.9l-.8-.4a1.8 1.8 0 0 1-.8-1.6c0-.5.1-1 .4-1.2l1-.7c.6-.1 1-.3 1.6-.3h1.6v-.2c0-.5-.2-.8-.5-1a2 2 0 0 0-1-.3c-.4 0-.8.1-1 .3a3 3 0 0 0-.7.3.3.3 0 0 1-.4 0l-.5-.6a.3.3 0 0 1 0-.3c.4-.3.8-.6 1.2-.7a4.5 4.5 0 0 1 3 0l.8.6c.3.3.4.6.5 1l.1 1v3.7a.3.3 0 0 1-.3.3h-1.2v-1Zm0-2.2h-1.3l-.8.2-.6.4a.7.7 0 0 0-.3.6l.1.3.3.3.4.1h.4c.6 0 1 0 1.3-.4.3-.3.4-.7.4-1.2v-.3Zm5.3-1.9c0-.7.1-1.4.4-2a4.7 4.7 0 0 1 2.8-2.7 6 6 0 0 1 2-.4 6 6 0 0 1 2.2.4 4.6 4.6 0 0 1 2.8 2.6c.2.7.3 1.4.3 2.2 0 .7-.1 1.4-.4 2a4.8 4.8 0 0 1-2.7 2.7c-.7.3-1.4.4-2.2.4-.7 0-1.4-.1-2-.4a4.8 4.8 0 0 1-2.8-2.7c-.3-.6-.4-1.3-.4-2Zm1.9 0c0 .5 0 1 .2 1.5l.7 1.1c.3.4.7.6 1.1.8a3.2 3.2 0 0 0 2.7 0 3.2 3.2 0 0 0 1.8-1.9c.2-.5.2-1 .2-1.4 0-.5 0-1-.2-1.5-.2-.4-.4-.8-.7-1a3.2 3.2 0 0 0-2.4-1.1c-.5 0-1 0-1.4.3-.4.1-.8.4-1 .7-.4.3-.6.7-.8 1.1a4 4 0 0 0-.2 1.5m10.2-1.8h1l.3.1v1c.2-.4.5-.7.8-.9.4-.2.9-.4 1.3-.3.4 0 .8 0 1.1.2.3.1.6.3.8.6l.4.8.2 1v3.9a.3.3 0 0 1-.3.3h-1.1a.3.3 0 0 1-.3-.3v-4l-.2-.6-.4-.4-.6-.2c-.3 0-.5 0-.7.2-.2 0-.4.2-.5.4l-.3.6v4a.3.3 0 0 1-.4.3h-1a.3.3 0 0 1-.3-.3v-6a.3.3 0 0 1 .2-.4Zm7.5-3.8h1a.3.3 0 0 1 .3.3v10a.3.3 0 0 1-.2.2h-1.1a.3.3 0 0 1-.3-.3v-10a.3.3 0 0 1 .2-.2Zm2.4 1.5a1 1 0 0 1 .3-.6 1 1 0 0 1 .7-.3c.3 0 .6 0 .8.3a1 1 0 0 1 .3.7 1 1 0 0 1-.3.7c-.2.2-.5.3-.8.3a1 1 0 0 1-1-.6V65Zm.5 2.3h1l.3.1V74h-1.3a.3.3 0 0 1-.3-.2v-6a.3.3 0 0 1 .3-.4m3-.1h1a.3.3 0 0 1 .3.3v.8c.2-.4.5-.7.8-.9.4-.2.8-.4 1.3-.3.4 0 .8 0 1.1.2a2.2 2.2 0 0 1 1.2 1.4l.2 1v3.9a.3.3 0 0 1-.3.3h-1.1a.3.3 0 0 1-.3-.3v-4l-.2-.6-.4-.4-.7-.2c-.2 0-.4 0-.6.2-.2 0-.4.2-.5.4l-.3.6-.1.6v3.4a.3.3 0 0 1-.3.3h-1a.3.3 0 0 1-.4-.3v-6a.3.3 0 0 1 .3-.4Zm13.7 3.4v.4h-5a1.6 1.6 0 0 0 .6 1.3 2 2 0 0 0 1.3.4c.3 0 .7 0 1-.2l.5-.4a.3.3 0 0 1 .4 0l.7.5a.3.3 0 0 1 0 .3 3 3 0 0 1-2.6 1.2l-1.5-.3c-.4-.1-.8-.4-1-.7a3 3 0 0 1-.8-1l-.3-1.5c0-.5 0-1 .3-1.5a3.2 3.2 0 0 1 1.8-1.8 3.7 3.7 0 0 1 2.7 0c.4.1.7.4 1 .7l.7 1c.2.6.2 1.1.2 1.6Zm-1.6-.7-.1-.6a1.4 1.4 0 0 0-.8-.9l-.7-.1c-.5 0-1 .1-1.3.4a1.6 1.6 0 0 0-.5 1.2h3.4Z" fill="#fff"/></svg>