<svg xmlns="http://www.w3.org/2000/svg" width="800" height="800" viewBox="-12.04 0 314.15 314.15" xmlns:v="https://vecta.io/nano"><style><![CDATA[.F{fill:#211715}.G{fill:#fff}.H{fill:#ffda71}.I{fill:#f2635f}]]></style><g class="G"><path d="M172.54 312.177v-30.525l-80.158.14.007 30.426z"/><path d="M108.462 264.239v-2.768h48v19.217 1l-48 .091v-1.111-16.429zM224.035 79.228a28.2 28.2 0 0 0 5.68-1.342 7.97 7.97 0 0 0 4.069-3.7 15.64 15.64 0 0 0 1.306-5.95 16.71 16.71 0 0 0 1.341 5.95c.875 1.677 2.317 2.988 4.069 3.7 1.783.654 3.635 1.104 5.52 1.342a25.61 25.61 0 0 0-5.52 1.342c-1.752.712-3.194 2.023-4.069 3.7a15.64 15.64 0 0 0-1.305 5.95 16.72 16.72 0 0 0-1.342-5.95c-.875-1.677-2.317-2.988-4.069-3.7a27.42 27.42 0 0 0-5.68-1.342zM1.996 131.55c2.9-.52 6.9-1.073 9.89-2.337 3.052-1.239 5.563-3.523 7.085-6.444 1.678-3.391 1.934-6.583 2.274-10.36.442 3.829.657 6.969 2.336 10.36 1.522 2.921 4.033 5.205 7.085 6.444a43.82 43.82 0 0 0 9.612 2.337 44.58 44.58 0 0 0-9.612 2.337c-3.052 1.239-5.563 3.523-7.085 6.444-1.679 3.391-1.934 6.583-2.274 10.36-.442-3.829-.658-6.969-2.336-10.36-1.522-2.921-4.033-5.205-7.085-6.444-2.997-1.264-7.04-1.848-9.89-2.337zm269.538 89.138c.004.036.035.063.071.063s.066-.027.071-.063c.292-4.659 1.616-8.785 5.155-11.96 3.15-2.724 7.043-4.443 11.178-4.937.051 0 .093-.042.093-.093s-.042-.093-.093-.093c-4.135-.497-8.027-2.218-11.178-4.941-3.539-3.174-4.787-7.235-5.138-11.941-.004-.036-.035-.063-.071-.063s-.066.027-.071.063c-.3 4.706-1.614 8.766-5.153 11.94-3.151 2.723-7.043 4.444-11.178 4.941-.051 0-.093.042-.093.093s.042.093.093.093c4.135.494 8.028 2.213 11.178 4.937 3.539 3.173 4.776 7.311 5.136 11.961zM211.92 71.846c.004.036.035.063.07.063s.066-.027.07-.063c.293-4.659 1.617-8.785 5.156-11.96 3.15-2.724 7.043-4.444 11.179-4.938.051 0 .093-.042.093-.093s-.042-.093-.093-.093a20.91 20.91 0 0 1-11.178-4.941c-3.539-3.174-4.788-7.235-5.139-11.941-.004-.036-.035-.063-.07-.063s-.066.027-.07.063c-.3 4.706-1.613 8.766-5.152 11.94a20.91 20.91 0 0 1-11.178 4.941c-.051 0-.093.042-.093.093s.042.093.093.093c4.135.494 8.028 2.213 11.178 4.937 3.538 3.175 4.775 7.316 5.134 11.962z"/></g><g class="F"><path d="M154.457 256.118v24.57c0 2.574 4 2.578 4 0v-24.57c0-2.574-4-2.578-4 0zm-44 24.55q.014-12.274.01-24.55c0-2.574-4-2.578-4 0q0 12.274-.01 24.55c0 2.574 4 2.578 4 0z"/><path d="M174.54 312.177q.015-15.263 0-30.525a2.03 2.03 0 0 0-2-2l-25.3.057q-18.843.039-37.687.068-8.587.012-17.174.015a2.03 2.03 0 0 0-2 2l.007 30.426c0 2.573 4 2.578 4 0l-.007-30.426-2 2q16.722 0 33.446-.041 17.712-.031 35.424-.073l11.288-.026-2-2q0 15.262 0 30.525c0 2.574 4 2.578 4 0z"/></g><path d="M169.47 104.292l22.046-.052c.469 0 .898-.262 1.111-.68s.174-.919-.102-1.298l-59.06-80.05a1.24 1.24 0 0 0-1.991 0l-59.064 80.05c-.275.379-.315.881-.102 1.298s.642.68 1.111.68l22.042.052c.468-.001.898.26 1.112.677s.176.918-.098 1.298l-53.526 74.17c-.275.379-.313.881-.099 1.298s.643.679 1.111.677l25.065.066a1.25 1.25 0 0 1 .995 2L13.69 259.471c-.287.378-.334.886-.121 1.311s.647.692 1.121.689h235.544c.475.004.911-.263 1.124-.688s.165-.934-.124-1.312l-56.32-75c-.287-.378-.334-.886-.121-1.311s.647-.692 1.121-.689l25.039-.066c.47.001.901-.263 1.113-.683s.171-.923-.107-1.301l-53.5-74.161c-.269-.379-.304-.877-.092-1.291s.638-.675 1.103-.677z" fill="#74c66d"/><path d="M116.831 38.527q-19.674 26.489-39.153 53.12-3.3 4.522-6.595 9.055a3.58 3.58 0 0 0-.8 3.144c.365 1.301 1.496 2.24 2.842 2.361 1.934.192 3.953.042 5.9.047l15.7.036c.247.025.495.025.742 0-1.034.834-.682-1.046-.713-1.035-.1.035-.249.345-.317.44l-.759 1.051-1.724 2.39-23.96 33.2-23.92 33.14-1.736 2.405c-.674.935-1.546 1.872-1.61 3.079-.072 1.253.576 2.438 1.67 3.053 1.084.408 2.251.545 3.4.4q3.79.007 7.582.019l9.03.027 4.492.012c.706.083 1.42.083 2.126 0-.332.477-.975-.947-.771-.954-.054 0-.243.322-.28.371q-2.151 2.847-4.3 5.7-15.26 20.256-30.476 40.542-8.332 11.1-16.656 22.209-1.852 2.474-3.7 4.948a4.9 4.9 0 0 0-1.395 2.844 3.26 3.26 0 0 0 2.15 3.136c1.287.265 2.606.332 3.913.2h231.53a7.1 7.1 0 0 0 2.285-.2 3.2 3.2 0 0 0 2.123-2.738c.113-1.323-.573-2.177-1.321-3.168q-16.108-21.35-32.134-42.761-7.356-9.808-14.712-19.617-2.7-3.6-5.4-7.2l-2.053-2.733-.83-1.1c-.052-.069-.263-.437-.327-.435.332-.006-.629 1.465-.762.966.471.028.943.028 1.414 0q8.931-.022 17.863-.051l3.263-.008a11.56 11.56 0 0 0 3.586-.2c2.434-.826 2.554-3.553 1.237-5.352q-5.177-7.08-10.3-14.2-14.088-19.485-28.117-39.011l-11.224-15.6-1.964-2.731-.778-1.083c-.155-.214-.471-.875-.7-.977l.008.489q-1.32.657-.352.544a3.68 3.68 0 0 0 .75 0h1.932l4.02-.009 7.92-.018 6.344-.016a3.9 3.9 0 0 0 3-.953 3.27 3.27 0 0 0 .592-3.78c-1.093-1.782-2.314-3.483-3.653-5.089q-2.055-2.826-4.114-5.647-9.513-13.035-19.091-26.024-9.864-13.387-19.784-26.734a2.06 2.06 0 0 0-2.736-.718c-.948.563-1.267 1.782-.717 2.737q19.77 26.585 39.3 53.345 1.99 2.73 3.977 5.461.9 1.233 1.791 2.466.45.62.9 1.241c.102.172.22.335.352.485q.248.487.172 0-.1-.623.72-.787c-.271-.26-2.095.006-2.5.007l-3.465.008-7.587.018-7.755.017a3.72 3.72 0 0 0-3.437 1.451 3.29 3.29 0 0 0-.046 3.536c1 1.635 2.273 3.159 3.392 4.715q12.6 17.523 25.214 35.038l24.152 33.4a5.19 5.19 0 0 0 .471.644c.019.019.137.232.181.247l.089.121q-.195-.791.721-1.025c-.146-.143-.968 0-1.2 0h-1.987q-3.867.009-7.732.021l-8.926.026c-1.574 0-3.153-.031-4.726.012-1.335-.113-2.619.538-3.316 1.682-1.35 2.511 1.393 5.018 2.8 6.9q2.636 3.508 5.267 7.018 15.43 20.573 30.864 41.142 7.734 10.3 15.482 20.585l1.529 2.026c.08.107.372.625.494.656.06.015-.251-1.908.731-1.011-.044-.041-.3.009-.362 0-.489-.036-.979-.036-1.468 0H15.326c-.7 0-.833-.221.081.531.285.235-.384.7.184.25a2.88 2.88 0 0 0 .351-.469l.892-1.191 1.839-2.456q1.936-2.588 3.876-5.174 16.638-22.2 33.314-44.375 6.3-8.375 12.6-16.745 1.08-1.434 2.163-2.869c.922-1.222 1.986-2.406 1.536-4.083-.821-3.059-4.522-2.415-6.923-2.421l-9.259-.027-8.127-.023-3.007-.006c-.15 0-.612-.08-.743 0h-.145q.922.24.715 1.034c.109-.045.249-.344.317-.439l3.517-4.873q5.394-7.476 10.789-14.95l26.721-37.027 9.954-13.793c1.358-1.882 3.751-4.2 2.183-6.624-.749-1.027-1.987-1.579-3.252-1.45l-4.086-.008-7.864-.019-6.891-.016h-1.419a3.7 3.7 0 0 0-1.112 0c-.391.188 1.264.822.6 1.031.084-.027.189-.294.265-.366.31-.358.588-.741.832-1.147q3.328-4.584 6.674-9.155 9.153-12.535 18.352-25.01 9.993-13.557 20.032-27.079c.549-.955.229-2.174-.718-2.736-.957-.531-2.162-.215-2.736.717z" class="F"/><path d="M114.462 31.648c2.176-3.016 4.133-6.2 6.022-9.051.035-.052.035-.121 0-.173-1.893-2.854-3.855-6.05-6.034-9.072-.037-.046-.044-.109-.019-.162s.079-.087.138-.088l11.243-.112c.06 0 .114-.034.139-.088q2.707-5.554 5.936-10.835a.16.16 0 0 1 .275 0c1.059 1.794 4.984 8.458 6.151 10.837.025.052.078.085.136.083l11.9.117c.059 0 .113.034.138.087s.018.116-.018.163c-2.182 3.021-4.144 6.217-6.037 9.071-.035.052-.035.121 0 .173 1.888 2.848 3.846 6.035 6.019 9.052.036.046.043.109.018.162s-.079.087-.138.087l-11.933.113c-.058-.002-.112.031-.136.084-1.153 2.353-5.047 8.965-6.1 10.754a.16.16 0 0 1-.275 0q-3.191-5.235-5.891-10.75c-.025-.054-.079-.088-.138-.088l-11.279-.114c-.059-.001-.112-.035-.137-.088s-.017-.116.02-.162z" class="H"/><path d="M116.189 32.657l3.367-4.97 1.7-2.631a4.98 4.98 0 0 0 1.224-2.545c-.157-.949-.582-1.834-1.226-2.549q-.794-1.223-1.584-2.446l-3.5-5.173.273 1.009-.017-.164-.991 1.727.137-.086-1.01.273 5.731-.057q1.63-.021 3.261-.039a11.49 11.49 0 0 0 2.783-.087c1.116-.307 1.5-1.353 1.966-2.286q.852-1.7 1.754-3.374 1.692-3.139 3.55-6.183l-.717.718.138-.079h-2.012l.137.078-.718-.717c1.921 3.252 3.862 6.5 5.636 9.839.5.949.941 1.834 2.112 2.036a26.3 26.3 0 0 0 3.992.063l8.178.089-1.01-.273.138.086-.991-1.727-.017.164.273-1.009c-1.17 1.63-2.282 3.3-3.376 4.981l-1.708 2.637a4.99 4.99 0 0 0-1.226 2.549 5.02 5.02 0 0 0 1.224 2.545l1.58 2.44c1.131 1.743 2.279 3.473 3.488 5.162l-.273-1.009.017.164.99-1.727-.137.086 1.01-.274-8.2.089c-1.234.014-2.5-.064-3.731.024-1.327.1-1.82 1.023-2.372 2.062-1.761 3.311-3.689 6.538-5.595 9.766l.718-.717-.137.077h2.019l-.138-.078.717.718q-1.836-3.023-3.522-6.134-.894-1.66-1.74-3.347c-.468-.934-.847-1.969-1.961-2.276a11.44 11.44 0 0 0-2.786-.082q-1.635-.016-3.269-.04l-5.757-.059 1.01.274-.137-.086.991 1.727.017-.164c-.007-1.102-.898-1.993-2-2-1.095.024-1.976.905-2 2l-.017.164c-.005.712.373 1.372.99 1.727a5.5 5.5 0 0 0 2.9.369q1.585.014 3.172.037l6.349.066-1.01-.273.139.088-.718-.717q2.178 4.447 4.679 8.725c.7 1.2 1.417 3.092 3.075 3.092 1.217 0 1.8-.964 2.343-1.881 1.927-3.273 3.937-6.535 5.625-9.941l-.718.718.136-.084-1.009.273 6.606-.061q1.6-.021 3.2-.038c1.039-.01 2.358.2 3.275-.372.617-.355.996-1.015.991-1.727a5.7 5.7 0 0 0-1.359-2.694q-.851-1.236-1.671-2.494l-3.279-5.038.273 1.01v-.173l-.273 1.01 3.287-5.049 1.677-2.5c.689-.761 1.16-1.694 1.363-2.7a1.98 1.98 0 0 0-.99-1.727c-.881-.55-2.084-.361-3.081-.37q-1.689-.017-3.376-.041l-6.594-.065 1.01.274-.137-.084.718.717c-1.7-3.432-3.727-6.72-5.67-10.02-.506-.86-1-1.686-2.079-1.849-1.808-.272-2.609 1.808-3.351 3.073q-2.524 4.307-4.716 8.8l.718-.717-.139.088 1.009-.273-6.336.066q-1.578.021-3.158.037c-.981-.142-1.981-.015-2.895.368-.617.355-.995 1.015-.99 1.727.204 1.006.675 1.938 1.362 2.7l1.676 2.5 3.286 5.049-.273-1.01v.168l.273-1.01c-2 3.024-3.909 6.1-6.022 9.051a2.02 2.02 0 0 0 .718 2.737c.958.533 2.166.215 2.738-.721zm108.378 48.5c3.258-.575 6.536-1.114 9.051-3.459 2.659-2.479 3.163-6.027 3.472-9.463h-4c.379 3.334.789 6.728 3.271 9.233 2.45 2.474 5.83 3.13 9.128 3.689V77.3c-3.29.571-6.687 1.2-9.128 3.688-2.462 2.506-2.935 5.89-3.235 9.233h4c-.391-3.436-.835-6.97-3.508-9.463-2.507-2.338-5.795-2.907-9.051-3.458a2.06 2.06 0 0 0-2.46 1.4 2.02 2.02 0 0 0 1.4 2.461c2.364.4 5.114.631 7.04 2.209 2.058 1.687 2.3 4.387 2.583 6.855a2 2 0 1 0 4 0c.214-2.378.46-4.911 2.3-6.635 1.867-1.749 4.721-2.011 7.126-2.429 1.905-.331 1.914-3.533 0-3.857-2.408-.408-5.258-.684-7.126-2.43-1.843-1.723-2.067-4.264-2.336-6.635a2 2 0 1 0-4 0c-.223 2.481-.5 5.161-2.547 6.855-1.92 1.586-4.681 1.794-7.04 2.21-1.061.299-1.684 1.395-1.4 2.46.315 1.048 1.399 1.661 2.46 1.393zM2.524 133.479c5.308-.942 10.718-1.723 14.892-5.447 4.5-4.015 5.314-9.943 5.825-15.623h-4c.614 5.38 1.236 10.9 5.208 14.973 4.059 4.159 9.8 5.166 15.293 6.1v-3.858c-5.434.947-11.088 1.9-15.162 5.963-4.059 4.046-4.788 9.669-5.277 15.107h4c-.642-5.626-1.333-11.441-5.748-15.5-4.158-3.819-9.673-4.662-15.031-5.574a2.06 2.06 0 0 0-2.461 1.4 2.02 2.02 0 0 0 1.4 2.461c4.413.75 9.469 1.233 12.986 4.294 3.8 3.309 4.318 8.2 4.857 12.918a2 2 0 1 0 4 0c.4-4.492.913-9.272 4.376-12.54 3.5-3.3 8.592-3.883 13.126-4.672 1.9-.332 1.915-3.533 0-3.858-4.6-.78-9.755-1.4-13.261-4.8-3.368-3.267-3.8-8-4.3-12.41a2 2 0 1 0-4 0c-.43 4.778-1.03 9.765-4.937 13.042-3.528 2.959-8.483 3.4-12.844 4.17a2.02 2.02 0 0 0-1.4 2.461c.316 1.046 1.398 1.66 2.458 1.393zM270.119 222.1l.071.069c.788.764 2.041.764 2.829 0 .839-.841.667-2.142.822-3.236a18.95 18.95 0 0 1 .7-3.059c.631-2.023 1.758-3.856 3.278-5.332 1.656-1.581 3.619-2.806 5.767-3.6a22.21 22.21 0 0 1 2.911-.866c1-.223 2.285-.184 3.016-.966.757-.791.757-2.038 0-2.829-.709-.761-1.893-.723-2.851-.932a22.36 22.36 0 0 1-2.9-.84c-2.214-.795-4.238-2.043-5.942-3.665a12.48 12.48 0 0 1-3.188-5.127 20.02 20.02 0 0 1-.72-3.045c-.179-1.128 0-2.585-.872-3.435a2.03 2.03 0 0 0-2.829 0c-.842.84-.669 2.155-.824 3.25a19.04 19.04 0 0 1-.7 3.058 12.65 12.65 0 0 1-3.273 5.3 16.8 16.8 0 0 1-5.767 3.6 22.37 22.37 0 0 1-2.911.867c-1 .225-2.281.18-3.016.969-.757.791-.757 2.038 0 2.829.685.732 1.766.7 2.688.9.919.192 1.826.442 2.714.748a17.22 17.22 0 0 1 5.7 3.245c3.156 2.765 4.375 6.61 4.713 10.688.211 2.547 4.213 2.57 4 0-.4-4.811-1.735-9.517-5.293-12.973a22.8 22.8 0 0 0-13.021-5.925l1.415.586-.087-.093v2.829l.086-.094-.882.515a22.25 22.25 0 0 0 12.63-5.993c3.468-3.445 4.834-8.053 5.169-12.817l-.586 1.414.07-.07h-2.83l.071.069-.585-1.414c.381 4.752 1.689 9.368 5.155 12.818 3.456 3.304 7.884 5.406 12.629 5.993l-.882-.515.087.094v-2.829l-.087.093 1.414-.586c-4.863.529-9.428 2.606-13.022 5.925-3.559 3.45-4.977 8.143-5.311 12.972l.585-1.415-.07.07h2.829l-.071-.068c-1.852-1.795-4.682 1.03-2.829 2.823zM210.506 73.26l.071.069c.788.764 2.041.764 2.829 0 .839-.841.666-2.142.821-3.236a19.09 19.09 0 0 1 .7-3.059 12.73 12.73 0 0 1 3.279-5.332 16.78 16.78 0 0 1 5.766-3.6 22.38 22.38 0 0 1 2.912-.866c.994-.223 2.285-.184 3.016-.966.757-.791.757-2.038 0-2.829-.709-.761-1.893-.723-2.851-.932a22.36 22.36 0 0 1-2.9-.84 16.9 16.9 0 0 1-5.942-3.664 12.48 12.48 0 0 1-3.188-5.128c-.32-.994-.56-2.012-.72-3.044-.179-1.129 0-2.586-.872-3.436a2.03 2.03 0 0 0-2.829 0c-.842.84-.669 2.155-.825 3.25a18.84 18.84 0 0 1-.7 3.058c-.632 2.012-1.757 3.833-3.272 5.3a16.82 16.82 0 0 1-5.767 3.6 22.38 22.38 0 0 1-2.912.867c-1 .225-2.28.18-3.015.969-.758.791-.758 2.038 0 2.829.684.732 1.765.7 2.688.895s1.826.442 2.714.749a17.2 17.2 0 0 1 5.7 3.244c3.155 2.765 4.374 6.61 4.712 10.688.211 2.547 4.213 2.57 4 0-.4-4.811-1.734-9.517-5.292-12.972a22.79 22.79 0 0 0-13.021-5.926l1.414.586-.087-.093v2.829l.087-.094-.882.515a22.24 22.24 0 0 0 12.628-5.991c3.468-3.445 4.835-8.053 5.169-12.817l-.586 1.414.071-.07h-2.826l.071.069-.586-1.414c.382 4.752 1.69 9.368 5.156 12.818 3.456 3.304 7.884 5.406 12.629 5.993l-.882-.514.086.093v-2.831l-.087.093 1.415-.586c-4.864.529-9.429 2.606-13.022 5.926-3.56 3.45-4.978 8.142-5.312 12.971l.586-1.415-.07.071h2.829l-.071-.069c-1.853-1.792-4.685 1.033-2.832 2.828z" class="F"/><path d="M76.815 248.887c.067-3.294.83-6.214 3.278-8.409 2.094-1.806 4.702-2.909 7.457-3.151.018 0 .018-.022 0-.023a13.22 13.22 0 0 1-7.454-3.154c-2.448-2.2-3.153-5.066-3.281-8.409-.077 3.343-.83 6.213-3.279 8.408-2.094 1.806-4.702 2.909-7.456 3.155-.018 0-.018.022 0 .023a13.18 13.18 0 0 1 7.456 3.151c2.446 2.195 3.142 5.122 3.279 8.409z" class="G"/><path d="M78.815 248.887c.069-2.412.539-4.85 2.3-6.622 1.752-1.677 4.019-2.712 6.434-2.938 1.094-.025 1.975-.906 2-2v-.027a2.05 2.05 0 0 0-2-2 10.77 10.77 0 0 1-6.433-2.942c-1.76-1.77-2.2-4.22-2.305-6.621a2 2 0 1 0-4 0c-.074 2.416-.533 4.846-2.3 6.621a10.78 10.78 0 0 1-6.433 2.942c-1.094.024-1.976.906-2 2v.023c.028 1.093.907 1.972 2 2a10.74 10.74 0 0 1 6.433 2.938c1.749 1.765 2.189 4.231 2.3 6.622.123 2.562 4.124 2.577 4 0-.168-3.466-.956-6.907-3.477-9.45-2.52-2.397-5.792-3.849-9.261-4.11l2 2v-.023l-2 2c3.468-.266 6.738-1.719 9.261-4.113 2.531-2.539 3.367-5.968 3.474-9.45h-4c.156 3.474.946 6.9 3.476 9.45 2.522 2.395 5.794 3.848 9.262 4.113l-2-2v.023l2-2a15.09 15.09 0 0 0-9.262 4.11c-2.522 2.536-3.374 5.973-3.473 9.45-.07 2.579 3.93 2.577 4.004.004z" class="F"/><path d="M222.884 217.776c-12.549 7.034-22.612 9.629-36.591 12.64-14.637 3.149-29.787 3.036-44.375-.332-13-3.023-25.3-8.59-38.316-11.526-20.278-4.576-41.462-2.594-61.941.973l5.481-9.749c.736-1.309 2.009-2.229 3.482-2.517 19.406-3.774 37-6.474 56.6-2.816 10.669 1.993 20.894 5.818 31.34 8.762 13.909 4.135 28.626 4.763 42.837 1.827 11.334-2.348 18.576-5.967 27.708-11.879a3.37 3.37 0 0 1 4.634.946z" class="H"/><path d="M221.875 216.049a113.26 113.26 0 0 1-30.107 11.1c-5.822 1.444-11.736 2.488-17.7 3.125a102.27 102.27 0 0 1-18.772-.026c-12.416-1.164-24.042-5.261-35.795-9.168a149.61 149.61 0 0 0-17.693-4.95c-6.148-1.215-12.384-1.933-18.647-2.147-14.093-.524-28.171 1.21-42.032 3.616l2.259 2.938 4.8-8.536.674-1.2c.868-1.442 2.211-1.6 3.748-1.894 4.185-.805 8.378-1.572 12.588-2.229a145.59 145.59 0 0 1 24.593-1.957 104.3 104.3 0 0 1 24.942 3.477c8.154 2.136 16.1 4.98 24.232 7.195a94.96 94.96 0 0 0 24.612 3.469 88.15 88.15 0 0 0 24.166-3.314 75.99 75.99 0 0 0 18.728-8.375q1.125-.684 2.237-1.39a7.55 7.55 0 0 1 1.9-1.139 1.44 1.44 0 0 1 1.5.609c.825 1.013 1.487 2.223 2.213 3.308l6.4 9.573.432.645c1.424 2.129 4.891.129 3.454-2.019l-5.331-7.97-3.1-4.63c-1-1.492-2.012-2.887-3.877-3.372a6 6 0 0 0-4.917 1.094c-1.579 1.012-3.173 2-4.794 2.942a71.14 71.14 0 0 1-8.94 4.48 78.31 78.31 0 0 1-23.1 5.289c-8.431.653-16.913.064-25.173-1.748-8.5-1.84-16.7-4.828-25.04-7.246-8.337-2.507-16.927-4.081-25.611-4.692a132.4 132.4 0 0 0-25.624 1.194c-4.272.572-8.523 1.274-12.762 2.048-3.852.7-8.529.788-10.829 4.458-1.8 2.878-3.351 5.947-5.015 8.908l-.563 1c-.39.706-.324 1.576.168 2.215s1.315.926 2.097.73c12.351-2.144 24.852-3.694 37.409-3.558a115.32 115.32 0 0 1 18.809 1.649c6.031 1.135 11.975 2.69 17.789 4.654 11.894 3.868 23.537 8.153 36.021 9.712a109.3 109.3 0 0 0 37.234-2.146 163.05 163.05 0 0 0 17.316-4.609 103.24 103.24 0 0 0 17.122-7.662c2.246-1.252.231-4.708-2.021-3.451z" class="F"/><path d="M141.649 61.43a8.65 8.65 0 0 0-8.678 8.9c0 5.371 3.623 9.069 8.679 9.069 5.25 0 8.678-3.733 8.678-9.069a8.64 8.64 0 0 0-8.679-8.9zm-48.444 94.222a8.65 8.65 0 0 0-8.679 8.9c0 5.371 3.624 9.069 8.679 9.069 5.251 0 8.679-3.733 8.679-9.069a8.64 8.64 0 0 0-2.451-6.291c-1.636-1.678-3.884-2.619-6.228-2.609z" class="I"/><path d="M191.717 134.553c-17.665 10.472-35.621 14.221-56.821 13.591a110.6 110.6 0 0 1-58.6-18.424l4.444-8.485c.335-.643.92-1.12 1.618-1.317s1.446-.1 2.068.271c14.755 8.874 32.156 12 49.453 11.531s30.745-3.382 44.617-12.936a2.64 2.64 0 0 1 3.721.769z" class="H"/><path d="M190.708 132.826a96.31 96.31 0 0 1-42.993 13.123c-15.837 1.146-31.742-.922-46.759-6.08-8.348-2.954-16.292-6.944-23.646-11.876l.718 2.737L81.55 124c.277-.528.783-2.118 1.5-2.2.377-.042.832.388 1.121.557q.847.5 1.71.968 2 1.1 4.071 2.07a92.48 92.48 0 0 0 34.7 8.217c11.134.569 22.755-.1 33.539-3.08a69.3 69.3 0 0 0 14.687-5.941q1.772-.965 3.488-2.029.879-.546 1.744-1.115c.467-.307 1.144-1.026 1.689-1.115.664-.109.908.565 1.2 1.027l8.988 14.2c1.374 2.169 4.837.165 3.454-2.019l-8.456-13.359c-.346-.546-.676-1.107-1.039-1.641-.69-1.089-1.79-1.855-3.051-2.123a5.28 5.28 0 0 0-4.106 1.112 67.38 67.38 0 0 1-14.607 7.539c-10.689 3.873-22.279 4.863-33.578 4.678-12.243-.2-24.649-2.337-35.845-7.439q-2.374-1.083-4.668-2.33c-1.451-.789-2.915-1.986-4.606-2.135-2.243-.2-3.845 1.187-4.821 3.049l-4.093 7.816a2.05 2.05 0 0 0 .717 2.736 111.19 111.19 0 0 0 44.986 17.357c15.825 2.408 32.528 2.019 48.034-2.146 8.571-2.34 16.785-5.83 24.419-10.375 2.215-1.306.205-4.765-2.019-3.453zM141.649 59.43a10.7 10.7 0 0 0-10.183 7.556c-1.287 4.135-.109 9.256 3.326 12.026 3.578 2.801 8.49 3.175 12.451.949 3.927-2.293 5.564-7.014 4.938-11.372-.76-5.239-5.238-9.134-10.532-9.159-2.575-.035-2.576 3.965 0 4 2.978-.02 5.599 1.961 6.392 4.831a7.57 7.57 0 0 1-2.106 7.767 7.36 7.36 0 0 1-7.648.558c-2.425-1.518-3.715-4.334-3.28-7.162.345-3.408 3.217-6 6.642-5.994 2.572-.03 2.579-4.03 0-4z" class="F"/><path d="M120.658 183.553a5.62 5.62 0 0 0-5.639 5.784 5.53 5.53 0 0 0 5.64 5.893c3.411 0 5.639-2.426 5.639-5.893.046-1.523-.529-2.998-1.593-4.089s-2.524-1.702-4.047-1.695z" class="G"/><path d="M93.205 153.652a10.7 10.7 0 0 0-10.184 7.556c-1.287 4.136-.109 9.256 3.327 12.027 3.578 2.8 8.489 3.174 12.45.949 3.927-2.294 5.565-7.015 4.939-11.372a10.7 10.7 0 0 0-10.532-9.16c-2.575-.035-2.576 3.965 0 4 2.978-.02 5.599 1.961 6.392 4.831a7.58 7.58 0 0 1-2.106 7.768 7.36 7.36 0 0 1-7.648.558 7.17 7.17 0 0 1-3.28-7.163c.345-3.408 3.217-6 6.642-5.994 2.572-.035 2.579-4.035 0-4zm27.453 27.901c-3.355.019-6.309 2.217-7.292 5.425a8.14 8.14 0 0 0 2.342 8.5 7.67 7.67 0 0 0 12.469-7.454 7.64 7.64 0 0 0-7.519-6.466 2 2 0 1 0 0 4l.5.021c.514.016-.27-.075.029 0l.832.216c.1.026.348.151-.052-.034l.406.2.258.15c.1.064.582.467.2.12l.534.508.194.222c-.332-.373-.021-.019.038.07.138.208.247.427.369.644.228.407-.056-.273.007 0 .039.169.12.335.168.5a6.83 6.83 0 0 1 .163.751c-.089-.539 0 .261 0 .408 0 .27-.022.537-.042.805.039-.52 0-.023-.02.082l-.1.44a7.31 7.31 0 0 1-.231.693c.2-.518-.129.214-.208.344l-.189.29c-.248.39.3-.3-.025.027a6.79 6.79 0 0 0-.533.526c-.163.207.392-.252.027-.021l-.348.223-.243.133-.125.062q-.3.137.089-.034c-.111.125-.543.18-.69.216-.123.018-.245.044-.365.077-.15.025-.1.02.155-.015l-.31.028a6.57 6.57 0 0 1-.794.009l-.385-.03c-.3 0 .469.113.009-.008l-.708-.188-.136-.047c-.207-.08-.179-.067.081.039a1.48 1.48 0 0 1-.378-.191 5.8 5.8 0 0 1-.585-.38c.442.321-.113-.127-.221-.239l-.278-.313c.311.349.088.123.019.009l-.424-.748c-.158-.227.141.444 0 0l-.139-.429a8.01 8.01 0 0 1-.166-.756c.013.072.035.434.012.055l-.027-.494v-.326c0-.109.087-.8 0-.245a6.66 6.66 0 0 1 .2-.893l.1-.286q.122-.312-.03.062l.131-.268c.139-.262.296-.514.47-.754-.04.056-.277.314-.036.059l.409-.424.222-.195c-.382.348.091-.057.2-.122l.258-.151c.055-.031.58-.254.307-.158-.3.106.178-.054.194-.058a5.36 5.36 0 0 1 .53-.139c.12-.025.48-.061.024-.018l.663-.036a2 2 0 1 0 0-4z" class="F"/><path d="M119.996 94.665a5.62 5.62 0 0 0-5.639 5.783 5.53 5.53 0 0 0 5.639 5.893c3.411 0 5.639-2.426 5.639-5.893.046-1.522-.529-2.998-1.592-4.088s-2.524-1.702-4.047-1.695z" class="G"/><path d="M119.996 92.665c-3.356.019-6.31 2.216-7.293 5.424a8.14 8.14 0 0 0 2.342 8.5 7.67 7.67 0 0 0 12.469-7.454 7.64 7.64 0 0 0-7.518-6.465 2 2 0 1 0 0 4l.5.02c.513.016-.271-.075.028 0l.832.216c.1.026.348.151-.051-.034l.405.2.258.15c.1.064.583.467.2.12l.533.508.194.222c-.332-.373-.021-.019.038.07.139.209.247.427.369.644.228.407-.056-.273.008 0 .038.169.12.335.167.5.069.247.123.498.163.751-.088-.539 0 .261 0 .408 0 .27-.022.537-.042.805.039-.52 0-.023-.02.082l-.1.44a6.88 6.88 0 0 1-.231.694c.2-.519-.129.213-.208.343l-.189.29c-.248.39.3-.3-.025.027a7.16 7.16 0 0 0-.533.526c-.162.207.393-.251.027-.021l-.347.223-.244.133-.125.062q-.3.136.09-.034c-.112.125-.544.18-.691.216a3.15 3.15 0 0 0-.365.077c-.15.026-.1.02.155-.015l-.31.028c-.264.019-.529.022-.794.009l-.385-.03c-.3 0 .47.113.01-.008l-.709-.188-.136-.047q-.309-.12.081.039a1.49 1.49 0 0 1-.377-.191c-.203-.115-.398-.242-.586-.38.442.321-.112-.127-.22-.239l-.279-.313c.311.349.088.123.019.009l-.424-.748c-.159-.227.142.444 0 0l-.139-.429c-.071-.249-.12-.5-.167-.756.014.072.035.434.013.055l-.027-.494v-.326c0-.109.087-.8 0-.245.048-.302.116-.601.206-.893l.1-.286q.121-.312-.031.062l.131-.268c.14-.261.297-.513.47-.754-.04.056-.277.314-.036.059l.409-.424.222-.195c-.381.348.092-.057.2-.122l.258-.151c.056-.031.58-.254.308-.158-.3.106.178-.053.193-.058q.262-.082.531-.139c.119-.025.48-.061.023-.017l.664-.036a2 2 0 1 0 0-4z" class="F"/><path d="M207.603 237.22a5.62 5.62 0 0 0-5.639 5.78 5.53 5.53 0 0 0 5.639 5.892c3.411 0 5.639-2.425 5.639-5.892.044-1.522-.531-2.996-1.594-4.086s-2.523-1.701-4.045-1.694z" class="G"/><path d="M207.603 235.22a7.67 7.67 0 0 0-7.292 5.424 8.14 8.14 0 0 0 2.341 8.5 7.67 7.67 0 0 0 12.47-7.454 7.64 7.64 0 0 0-7.519-6.466 2 2 0 1 0 0 4l.5.02c.513.017-.271-.074.029 0l.832.216c.095.026.347.151-.052-.035l.405.2.258.151c.1.063.583.467.2.12l.533.508.194.222c-.332-.374-.021-.02.039.07.138.208.247.427.368.644.228.407-.056-.273.008 0 .039.168.12.334.167.5.069.247.124.497.163.75-.088-.538 0 .261 0 .409 0 .27-.022.536-.041.805.038-.52 0-.023-.021.081l-.1.44a6.72 6.72 0 0 1-.231.694c.2-.518-.129.214-.208.343l-.189.29c-.247.391.3-.3-.025.028-.187.166-.365.341-.533.525-.162.208.393-.251.027-.02l-.347.222-.244.134-.125.062c-.2.091-.169.079.09-.034-.112.124-.543.18-.691.216-.123.018-.245.044-.365.077q-.225.037.155-.016l-.31.029c-.264.018-.529.022-.794.009l-.385-.031c-.3 0 .47.114.01-.007l-.709-.188-.136-.048q-.309-.12.082.04a1.48 1.48 0 0 1-.378-.192 5.74 5.74 0 0 1-.586-.379c.442.321-.112-.128-.22-.24l-.279-.313c.311.35.088.124.019.01l-.424-.748c-.159-.227.142.444 0 0l-.139-.428c-.071-.249-.12-.5-.167-.756.014.072.035.433.013.054l-.027-.493v-.326c0-.108.087-.8 0-.245.047-.302.116-.601.205-.893l.1-.286q.121-.312-.031.061l.131-.268c.14-.261.297-.513.47-.754-.04.057-.277.315-.036.06l.41-.424.221-.2c-.381.347.092-.057.2-.122l.258-.152c.056-.03.58-.253.308-.158-.305.107.178-.053.193-.058a5.45 5.45 0 0 1 .531-.138c.119-.025.48-.061.023-.018l.664-.036a2 2 0 1 0 0-4z" class="F"/><path d="M149.623 160.585q-.142.378-.267.736l-.54 1.67c-.107.315-.152.648-.13.98a3.88 3.88 0 0 0 .89 1.38l.264.3 29.316.026.2-.29c.422-.39.742-.877.93-1.42.022-.332-.023-.665-.13-.98a24.97 24.97 0 0 0-.54-1.67c-.43-1.24-1.01-2.8-2.21-3.3-.833-.253-1.73-.204-2.53.14-3.448 1.158-6.764 2.68-9.89 4.54a1.09 1.09 0 0 1-1.05.01c-3.137-1.808-6.431-3.331-9.84-4.55-.8-.344-1.697-.393-2.53-.14-.917.523-1.592 1.384-1.88 2.4z" class="I"/><path d="M151.251 164.236c-.092-.1-.344-.493-.479-.555q-.22-.448-.11.164l.083-.323c.429-.792.535-1.835.915-2.664.211-.459.392-.926.9-1 .879.085 1.734.342 2.515.754a46.17 46.17 0 0 1 5.059 2.357c1.473.766 3.289 2.218 5.043 1.786.847-.298 1.653-.701 2.4-1.2q1.2-.649 2.414-1.254a37.79 37.79 0 0 1 4.99-2.07c.492-.16 1.339-.587 1.81-.241.39.442.663.975.794 1.549l.461 1.357c.064.2.224 1.216.3.756.068-.439-.409.349-.548.53l-.357.492c-1.465 2.124 2 4.127 3.454 2.019.895-1.3 1.643-2.2 1.285-3.908-.323-1.6-.908-3.136-1.732-4.546-2.453-3.921-6.847-1.895-10.2-.444-1.737.752-3.424 1.612-5.081 2.523-.245.175-.509.322-.787.438.058-.008.5.067-.022-.084-.419-.172-.821-.384-1.2-.632l-2.609-1.346c-1.768-.902-3.599-1.677-5.477-2.319-1.788-.59-3.7-.83-5.271.418s-2.223 3.4-2.78 5.249c-.379.941-.405 1.988-.074 2.947.383.767.883 1.468 1.484 2.079 1.7 1.942 4.516-.9 2.829-2.829z" class="F"/><path d="M144.507 165.653l39.979.031-.041 29.969c-4.59 0-32.526-.031-39.959-.031l.021-29.969z" class="G"/><path d="M168.911 166.842v-1.146l-8.909-.032.02 11.874.042 18.1 8.91.008-.042-18.106-.021-10.698z" class="I"/><g class="F"><path d="M166.91 165.7l.062 29.914c0 2.574 4 2.579 4 0l-.062-29.914c0-2.574-4-2.578-4 0zm-8.909 0l.062 29.91c0 2.574 4 2.578 4 0l-.062-29.91c0-2.573-4-2.578-4 0z"/><path d="M144.507 167.653q17.008 0 34.017.027 2.981 0 5.962 0l-2-2q-.017 14.985-.041 29.969l2-2q-16.266 0-32.533-.027-3.713 0-7.426 0l2 2q0-11.787.022-23.575 0-3.2 0-6.394c0-2.573-4-2.578-4 0q.018 13.208-.017 26.416 0 1.776 0 3.553a2.03 2.03 0 0 0 2 2q17 0 34 .027 2.982 0 5.962 0a2.03 2.03 0 0 0 2-2q0-14.984.041-29.969a2.03 2.03 0 0 0-2-2q-16.3 0-32.594-.027-3.691 0-7.385 0c-2.582 0-2.586 4-.008 4z"/></g></svg>