<svg xmlns="http://www.w3.org/2000/svg" xmlns:xlink="http://www.w3.org/1999/xlink" width="800" height="800" viewBox="0 -172.63 483.864 483.864" xmlns:v="https://vecta.io/nano"><style><![CDATA[.F{fill:#211715}.G{fill:#fff}.H{fill:#f2635f}.I{fill:#74c66d}]]></style><g class="G"><path d="M121.348,2a4.236,4.236,0,0,0-4.25,4.359,4.167,4.167,0,0,0,4.25,4.441,4.124,4.124,0,0,0,4.25-4.441A4.232,4.232,0,0,0,121.348,2Z"/><use xlink:href="#B"/><use xlink:href="#B" x="-309.918" y="35.008"/><use xlink:href="#B" x="136.665" y="-16.766"/></g><path d="M121.348 0a6.287 6.287 0 0 0-5.971 4.45 6.622 6.622 0 0 0 1.892 6.882 6.555 6.555 0 0 0 7.333.624 6.534 6.534 0 0 0 2.888-6.721A6.246 6.246 0 0 0 121.348 0a2.02 2.02 0 0 0-2 2 2.037 2.037 0 0 0 2 2l.376.015c.425.014-.379-.079-.109-.015l.627.162c.17.048.172.158-.157-.075a3.105 3.105 0 0 0 .306.151l.194.113.187.123c.169.123.122.086-.138-.109.085.139.289.259.4.382a1.141 1.141 0 0 0 .146.168l-.176-.23.128.183.278.485c.19.344-.109-.368-.044-.115.032.128.09.252.126.379.052.181.062.389.123.565-.164-.473-.036-.281-.025-.062l.006.239a3.47 3.47 0 0 0-.031.607l.042-.3-.04.228-.077.332c-.047.176-.133.347-.174.523.114-.494.117-.269.023-.088l-.13.229-.142.219c-.209.327.328-.357.058-.08l-.4.4c-.166.185.433-.292.12-.093l-.262.168-.183.1c-.217.112-.34.035.091-.028-.171.025-.351.121-.521.163-.089.021-.187.029-.275.057-.156.027-.073.018.248-.029l-.234.022a5.188 5.188 0 0 1-.6.007l-.29-.023c-.271-.005.525.109.138.011l-.534-.141c-.226-.076-.285-.226.077.043a2.815 2.815 0 0 0-.285-.144c-.153-.085-.29-.2-.442-.286.454.251.226.176.084.044q-.076-.072-.15-.147a2.637 2.637 0 0 0-.21-.236c.336.275.2.286.091.106l-.319-.563c-.138-.219.17.493.052.12l-.1-.324a3.208 3.208 0 0 0-.125-.569c.019.036.043.513.027.172l-.02-.372q0-.123 0-.246a3.08 3.08 0 0 1 .012-.236q.031-.327-.032.182c.074-.211.087-.456.154-.673l.073-.215q.115-.3-.072.164l.1-.2a6.261 6.261 0 0 0 .354-.568c-.014.037-.323.37-.105.144l.309-.319a1.167 1.167 0 0 0 .167-.147q-.391.293-.139.109l.187-.124.2-.114.173-.095c-.31.158.02 0 .086-.019.132-.041.265-.076.4-.1.274-.058.189.082-.113 0a2.363 2.363 0 0 0 .5-.027 2.025 2.025 0 0 0 2-2A2.033 2.033 0 0 0 121.348 0zM325.6 35.115a6.287 6.287 0 0 0-5.971 4.45 6.622 6.622 0 0 0 1.892 6.882 6.271 6.271 0 0 0 10.221-6.1 6.246 6.246 0 0 0-6.142-5.235 2 2 0 0 0 0 4l.376.015c.425.014-.379-.079-.109-.016l.627.163c.17.048.172.158-.157-.075a3.1 3.1 0 0 0 .306.15l.194.114.187.123c.169.123.122.086-.138-.11.085.14.289.26.4.383a1.134 1.134 0 0 0 .146.167l-.176-.229.128.182.278.486c.19.344-.109-.368-.044-.115.032.127.09.251.126.379.052.181.062.389.123.565-.164-.473-.036-.282-.025-.062l.006.239a3.461 3.461 0 0 0-.031.607l.042-.3-.04.228-.077.332c-.047.176-.133.347-.174.523.114-.494.117-.269.023-.089l-.13.23-.142.218c-.209.328.328-.356.058-.079l-.4.4c-.166.186.433-.291.12-.092l-.262.167-.183.1c-.217.112-.34.035.091-.028-.171.025-.351.121-.521.162l-.275.058q-.234.041.248-.029l-.234.022a5.188 5.188 0 0 1-.6.006c-.1 0-.194-.021-.29-.023-.271 0 .525.11.138.012l-.534-.141c-.226-.076-.285-.226.077.043a2.815 2.815 0 0 0-.285-.144c-.153-.085-.29-.2-.442-.286.454.251.226.176.084.044q-.076-.072-.15-.147a2.506 2.506 0 0 0-.21-.236c.336.275.2.286.091.106l-.319-.564c-.138-.218.17.494.052.12l-.1-.323a3.239 3.239 0 0 0-.125-.57c.019.036.043.513.027.173l-.02-.372q0-.123 0-.246 0-.123.012-.237.031-.325-.032.183c.074-.212.087-.456.154-.673l.073-.215q.115-.3-.072.164l.1-.2a6.261 6.261 0 0 0 .354-.568c-.014.037-.323.369-.1.144l.309-.32a1.056 1.056 0 0 0 .167-.147q-.392.294-.139.109l.187-.124.195-.114.173-.094c-.31.158.02 0 .086-.019.132-.041.265-.076.4-.1.274-.058.189.082-.113 0a2.363 2.363 0 0 0 .5-.027 2 2 0 0 0 0-4zM15.682 70.123a6.284 6.284 0 0 0-5.971 4.45 6.624 6.624 0 0 0 1.889 6.882 6.558 6.558 0 0 0 7.334.624 6.534 6.534 0 0 0 2.887-6.721 6.244 6.244 0 0 0-6.141-5.235 2 2 0 0 0 0 4l.376.015c.424.014-.38-.079-.109-.016l.627.163c.169.047.171.158-.157-.075.087.061.211.1.3.15q.1.054.2.114l.187.123c.168.122.122.086-.139-.11.085.14.289.26.4.383a1.2 1.2 0 0 0 .146.167l-.175-.229.127.182.278.486c.191.344-.109-.368-.044-.115.033.127.09.251.127.378.051.182.062.39.122.566-.163-.473-.035-.282-.024-.062l.006.239a3.461 3.461 0 0 0-.031.607l.041-.3q-.017.114-.039.228l-.077.332c-.047.176-.133.347-.174.523.114-.494.117-.269.022-.089l-.129.229-.143.219c-.209.328.328-.356.059-.079l-.4.4c-.167.186.433-.291.12-.092l-.262.167-.183.1c-.218.111-.34.034.09-.029-.17.025-.351.122-.52.163l-.275.058c-.156.027-.074.017.248-.029q-.117.014-.234.021a4.972 4.972 0 0 1-.6.007c-.1 0-.194-.021-.291-.023-.27-.005.525.11.139.012l-.534-.141c-.226-.076-.285-.226.076.043a2.62 2.62 0 0 0-.285-.144c-.153-.086-.289-.2-.441-.286.454.251.225.176.083.043l-.149-.147a2.969 2.969 0 0 0-.21-.236c.336.275.2.287.091.107l-.319-.564c-.138-.218.17.494.052.12l-.105-.323a3.2 3.2 0 0 0-.125-.57c.019.036.043.513.027.172l-.021-.371v-.246c0-.082.006-.158.012-.237.021-.217.011-.156-.032.183.075-.212.087-.456.155-.673l.073-.216q.114-.294-.073.165l.1-.2a5.741 5.741 0 0 0 .354-.569c-.013.037-.322.37-.1.145l.309-.32a1.154 1.154 0 0 0 .167-.147q-.392.294-.139.109l.187-.124.194-.114.173-.094c-.309.158.021 0 .087-.019.132-.041.265-.076.4-.1.274-.058.189.082-.113 0a2.363 2.363 0 0 0 .5-.027 2 2 0 0 0 0-4zm446.583-51.774a6.285 6.285 0 0 0-5.971 4.449 6.338 6.338 0 0 0 9.225 7.507 6.538 6.538 0 0 0 2.888-6.722 6.245 6.245 0 0 0-6.142-5.234 2 2 0 0 0 0 4l.376.015c.425.014-.379-.08-.109-.016l.627.163c.169.047.172.157-.157-.076a3.105 3.105 0 0 0 .306.151l.194.113.187.124c.168.122.122.086-.139-.11a3.421 3.421 0 0 0 .4.383 1.127 1.127 0 0 0 .146.167l-.176-.23.128.183.278.486c.19.343-.109-.369-.045-.115.033.127.091.251.127.378.051.181.062.39.122.566-.163-.473-.035-.282-.024-.063q.006.12.006.24a3.454 3.454 0 0 0-.031.606l.041-.3q-.016.114-.039.228l-.077.331c-.047.176-.133.347-.174.523.114-.494.117-.269.023-.088l-.13.229-.142.219c-.21.327.328-.356.058-.079l-.4.4c-.167.185.433-.291.12-.093l-.262.168-.183.1c-.218.112-.34.035.091-.028-.171.025-.352.122-.521.163l-.275.058c-.156.027-.074.017.248-.029q-.117.014-.234.021a4.972 4.972 0 0 1-.6.007c-.1 0-.194-.021-.29-.023-.271-.005.525.11.138.012l-.534-.142c-.226-.075-.285-.225.076.044a2.7 2.7 0 0 0-.284-.144c-.154-.086-.29-.2-.442-.287.454.252.225.176.083.044l-.149-.147a2.969 2.969 0 0 0-.21-.236c.336.275.2.287.091.107l-.319-.564c-.138-.218.17.493.052.12l-.105-.323a3.2 3.2 0 0 0-.125-.57c.019.036.043.513.027.172l-.021-.372v-.246l.011-.236c.022-.217.011-.157-.032.183.075-.212.087-.456.155-.673l.073-.216c.077-.2.052-.142-.072.164l.1-.2a5.846 5.846 0 0 0 .354-.568c-.013.037-.322.37-.1.145l.309-.32a1.217 1.217 0 0 0 .167-.147l-.139.109.187-.124.194-.114.173-.094c-.309.158.021 0 .087-.019.132-.042.265-.076.4-.105.274-.057.189.083-.113.005a2.431 2.431 0 0 0 .5-.027 2 2 0 0 0 0-4z" class="F"/><path d="M444.314 121.633h22.155a.9.9 0 0 0 .722-1.438l-16.8-22.373c-.007.007-2.315 1.469-2.315 1.469-2.7 1.831-6.392 1.5-9.373.167s-5.477-3.522-8.145-5.4-5.718-3.518-8.983-3.471c-1.583.023-3.137.444-4.719.528-6.19.332-11.38-4.346-15.785-8.707l-1.171-1.166-4.812 6.711a114.535 114.535 0 0 0 .79 17.24l2.09 16.44z" class="I"/><path d="M416.859 91.112c1.582-.084 3.136-.5 4.719-.528 3.265-.047 6.314 1.59 8.983 3.471s5.165 4.071 8.145 5.4 6.671 1.664 9.373-.167l2.317-1.468-2.586-3.446a.9.9 0 0 1 .717-1.44l7.333-.02a.9.9 0 0 0 .72-1.427L438.171 65.96a.9.9 0 0 1 .729-1.421l6.277-.016a.893.893 0 0 0 .723-1.419l-21.3-28.853-21.3 28.85a.9.9 0 0 0 .726 1.422l6.232.016a.9.9 0 0 1 .725 1.43l-11.1 15.313 1.2 1.12c4.396 4.364 9.586 9.042 15.776 8.71zm-3.437 30.858h-.468v12.569 2.061l22.987-.017-.006-2.041v-12.569l-11.49.012-11.023-.015z" class="G"/><g class="F"><use xlink:href="#C"/><path d="M410.954 122.994q0 5.772 0 11.544a2 2 0 0 0 4 0q0-5.772 0-11.544a2 2 0 1 0-4 0zM399.659 83.82c4.861 4.8 10.8 10.043 18.146 9.207 1.85-.21 3.686-.675 5.544-.277a15.181 15.181 0 0 1 4.958 2.2c3.11 1.981 5.822 4.594 9.2 6.15 3.657 1.685 8.046 2.175 11.585-.078 2.165-1.379.161-4.842-2.019-3.454-3.631 2.312-7.887.2-11.021-1.961-3.583-2.475-6.889-5.523-11.227-6.615-2.409-.606-4.6-.251-7.017.039a11.353 11.353 0 0 1-5.685-.74c-3.761-1.509-6.8-4.5-9.632-7.3-1.834-1.81-4.664 1.016-2.829 2.829z"/></g><path d="M413.382 40.127l3.653-5.49a.094.094 0 0 0 0-.1l-3.66-5.5a.094.094 0 0 1 .072-.152l6.82-.068a.093.093 0 0 0 .084-.054q1.643-3.369 3.6-6.571a.1.1 0 0 1 .167 0l3.731 6.573a.088.088 0 0 0 .082.051l7.221.071a.094.094 0 0 1 .073.152l-3.662 5.5a.09.09 0 0 0 0 .1l3.651 5.49a.094.094 0 0 1-.073.152l-7.238.068a.088.088 0 0 0-.083.051c-.7 1.427-3.061 5.438-3.7 6.523a.1.1 0 0 1-.167 0q-1.937-3.175-3.572-6.52a.092.092 0 0 0-.084-.054l-6.841-.069a.093.093 0 0 1-.074-.153z" fill="#ffda71"/><path d="M415.109 41.136l2.132-3.153c.62-.954 1.794-2.213 1.794-3.4 0-1.15-1.081-2.3-1.677-3.219l-2.256-3.346.273 1.01-.011-.1-.99 1.727.083-.052-1.01.273 3.754-.038c1.16-.015 2.754.239 3.836-.2 1.253-.51 1.726-2.266 2.318-3.376l2.323-4.068-.717.718.084-.048h-2.019l.083.047-.718-.717 3.511 6.143c.937 1.662 2.326 1.466 4.041 1.485l5.209.057-1.01-.273.083.052-.99-1.727-.01.1.273-1.01-2.138 3.16c-.621.955-1.8 2.217-1.8 3.4 0 1.148 1.078 2.3 1.673 3.213l2.251 3.339-.273-1.01.01.1.99-1.727-.083.052 1.01-.273-5.027.054c-1.759.02-3.267-.242-4.238 1.481l-3.485 6.1.718-.717-.083.047h2.019l-.084-.047.717.717-2.305-4.035c-.589-1.106-1.061-2.85-2.307-3.357-1.084-.44-2.68-.186-3.841-.2l-3.771-.039 1.01.273-.083-.052.991 1.727.01-.1a2.013 2.013 0 0 0-2-2 2.045 2.045 0 0 0-2 2l-.01.1a1.974 1.974 0 0 0 .99 1.727c1 .624 2.723.337 3.855.351l4.078.043-1.009-.273.084.054-.717-.718q1.434 2.922 3.092 5.724c.538.9 1.092 1.834 2.29 1.834a2.288 2.288 0 0 0 1.924-1.231 65.721 65.721 0 0 0 3.588-6.329l-.717.717.082-.051-1.009.273 4.243-.04c1.194-.015 3.041.3 4.087-.353a1.977 1.977 0 0 0 .991-1.727c-.129-1.264-1.124-2.3-1.808-3.334l-2.126-3.265.273 1.009v-.1l-.273 1.009 2.131-3.272c.69-1.045 1.683-2.066 1.814-3.339a1.978 1.978 0 0 0-.991-1.727c-1.043-.651-2.885-.338-4.077-.354l-4.236-.042 1.01.273-.083-.051.718.718a66.3 66.3 0 0 0-3.616-6.379 2.3 2.3 0 0 0-1.925-1.232c-1.2 0-1.755.934-2.294 1.841q-1.677 2.82-3.117 5.769l.717-.717-.084.053 1.01-.273-4.071.043c-1.139.015-2.838-.278-3.841.35a1.977 1.977 0 0 0-.991 1.727c.134 1.267 1.125 2.3 1.812 3.339l2.132 3.273-.273-1.009v.1l.273-1.009-3.653 5.489a2.017 2.017 0 0 0 .718 2.737 2.043 2.043 0 0 0 2.739-.719zm-19.941 22.401c-2.254-3.051-4.4-6.261-6.828-9.176a2.939 2.939 0 0 0-4.735.2l-2.9 3.891q-5.6 7.533-11.133 15.11c-1.013 1.389-1.729 3.045-.329 4.516a3.553 3.553 0 0 0 2.784.883h1.368.816.408q1.105.088-.716-1.422c-1.243 2.257 2.21 4.277 3.453 2.019a3.052 3.052 0 0 0-1.038-4.2 4.591 4.591 0 0 0-2.312-.4 8.156 8.156 0 0 0-2.34 0q.2 2.376.793 1.4l.136-.188c.157-.184.288-.4.431-.59l1.035-1.417q1.156-1.579 2.315-3.156 2.676-3.642 5.364-7.275 1.316-1.777 2.635-3.553l1.271-1.707.717-.962.3-.4q.435-.55-.082.032h-1.063q-.5-.55-.039.025l.45.6q.348.468.7.934.795 1.066 1.588 2.133 1.754 2.358 3.5 4.723a2.061 2.061 0 0 0 2.736.717 2.015 2.015 0 0 0 .718-2.736zm1.645 25.425q6.015-8.421 12.1-16.792 1.171-1.614 2.347-3.224a9.189 9.189 0 0 0 1.8-2.849c.5-2.044-1.174-3.471-3.049-3.556-1.009-.046-2.03 0-3.04-.007h-1.325-.836q-.984-.136.24.586v1.063c.05-.352.53-.832.758-1.145l1.09-1.494q1.27-1.74 2.545-3.477 3.026-4.128 6.062-8.248a2.013 2.013 0 0 0-.718-2.736 2.046 2.046 0 0 0-2.736.717q-4.62 6.274-9.218 12.563a9.957 9.957 0 0 0-1.5 2.243 2.9 2.9 0 0 0 .935 3.318c1.033.786 2.37.61 3.594.613l2.027.006h.937.71q.718.087-.313-.581V64.9c-.071.487-.8 1.189-1.107 1.609q-.8 1.093-1.6 2.19-2.046 2.811-4.082 5.629-4.556 6.3-9.075 12.62a2.017 2.017 0 0 0 .717 2.737 2.045 2.045 0 0 0 2.737-.718zm36.876-39.15q2.91 3.945 5.806 7.9 1.274 1.738 2.545 3.48l1.159 1.59c.254.348.881.992.939 1.393V63.11c.072-.421.918-.326.44-.583-.19-.1-.6 0-.83 0h-1.32c-1.163 0-2.369-.081-3.527.008a2.93 2.93 0 0 0-2.691 3.928 11.3 11.3 0 0 0 1.641 2.462l2.087 2.9Q445.1 79 450.265 86.168q1.3 1.8 2.6 3.59.569.786 1.138 1.569c.25.344.769.848.825 1.234V91.5c.064-.377.961-.344.5-.581a1.865 1.865 0 0 0-.558 0h-1.42l-2.931.009c-1.834.006-4.063-.083-4.68 2.1-.6 2.12 1.844 4.36 3.012 5.917q5.445 7.26 10.89 14.519 1.555 2.072 3.112 4.142l1.4 1.863c.335.445 1.206 1.267 1.288 1.8v-1.064c.137-.822 1.63-.525.555-.576-.46-.022-.927 0-1.388 0h-66.642c-2.574 0-2.578 4 0 4h65.668a17.291 17.291 0 0 0 3.367-.072 2.9 2.9 0 0 0 2.058-4.107 24.139 24.139 0 0 0-2.339-3.187q-2.816-3.744-5.627-7.491-5.058-6.741-10.113-13.485c-.38-.506-1.333-1.384-1.426-1.991v1.063c-.1.607-1.117.356-.077.572a3.744 3.744 0 0 0 .71 0l1.624-.005 2.962-.009a4.728 4.728 0 0 0 2.635-.457 2.962 2.962 0 0 0 1.346-2.433c0-1.315-1.048-2.375-1.777-3.379l-2.2-3.039q-5.324-7.364-10.624-14.742-1.221-1.695-2.44-3.392c-.47-.652-1.679-1.823-1.784-2.586v1.063l-.549.587h.478a4.748 4.748 0 0 0 1.185 0l1.834-.005c1.132 0 2.556.211 3.6-.328a2.9 2.9 0 0 0 1.558-2.829c-.078-1.139-.96-2.041-1.6-2.922q-4.622-6.345-9.285-12.66a2.061 2.061 0 0 0-2.737-.717 2.014 2.014 0 0 0-.717 2.736z" class="F"/><path d="M357.393 90.1l-.133-.457a1.335 1.335 0 0 1 1.74-1.607 10.95 10.95 0 0 0 3.86.833c1.16-.027 2.775-.893 4.055-.741l3.512.529a1.365 1.365 0 0 1 1.037 2c-.561 1.239-1.142 3.138-2.039 3.95l1.834 5.947c4.385 3.1 5.683 6.679 5.881 10.113a79.723 79.723 0 0 1-19.481-6.372c-.044-.022-.087-.044-.132-.062a12.4 12.4 0 0 1 2.235-4.831l1.131-3.644c-1.793-1.175-2.867-3.567-3.5-5.658z" class="G"/><g class="F"><path d="M347.033 125.441q-.627 3.757-1.081 7.542a1.991 1.991 0 0 0 .586 1.414 2 2 0 0 0 2.828 0 2.328 2.328 0 0 0 .586-1.414q.125-1.035.262-2.069l-.071.532q.334-2.477.748-4.942a2.172 2.172 0 0 0-.2-1.541 2 2 0 0 0-3.656.478zm34.148 7.01q-.48-3.081-1.09-6.14a2.013 2.013 0 0 0-2.461-1.4 2.05 2.05 0 0 0-1.4 2.46q.613 3.059 1.09 6.14a2.007 2.007 0 0 0 .92 1.2 2.038 2.038 0 0 0 1.541.2 2.017 2.017 0 0 0 1.195-.919 2.314 2.314 0 0 0 .2-1.541z"/><path d="M388.608,128.288c-1.751,3.136-5.544,2.7-8.652,2.7H338.2c-2.573,0-2.578,4,0,4h41.926c4.592,0,9.417-.168,11.935-4.679,1.256-2.25-2.2-4.269-3.453-2.019Z"/></g><path d="M340.156 117.706a14.733 14.733 0 0 1-.435-2.663 26.854 26.854 0 0 1 2.112-11.839 6.894 6.894 0 0 1 1.644-2.376c2.588-2.344 5.269-1.041 7.564.272 9.714 5.558 18.6 13.7 30.791 13.311a3.7 3.7 0 0 1 3.722 3.369 6.675 6.675 0 0 1-.83 4.143c-2.669 4.921-8.645 5.713-13.661 5.977a80.722 80.722 0 0 1-19.666-1.376c-2.837-.553-5.761-1.319-7.941-3.217a11.034 11.034 0 0 1-3.3-5.601z" class="I"/><path d="M342.084 117.174a21.242 21.242 0 0 1 .952-11.555c.514-1.522 1.213-3.48 2.924-3.989 1.453-.433 3.034.6 4.237 1.292 6.176 3.551 11.847 7.986 18.436 10.792a32.551 32.551 0 0 0 10.549 2.648c1.147.079 3.149-.4 3.953.618a3.663 3.663 0 0 1 .053 3.557c-1.232 2.842-4.193 4.152-7.039 4.77a46.925 46.925 0 0 1-10.627.694 74.558 74.558 0 0 1-14.608-1.614 14.254 14.254 0 0 1-5.806-2.3 9.113 9.113 0 0 1-3.024-4.918c-.685-2.478-4.545-1.426-3.857 1.063a13.134 13.134 0 0 0 8.812 9.248c4.684 1.6 9.959 2.077 14.871 2.377a65.646 65.646 0 0 0 13.643-.4c3.628-.542 7.364-1.879 9.73-4.824 2.4-2.986 3.58-8.019.29-10.875-1.718-1.491-3.673-1.268-5.788-1.366a25.423 25.423 0 0 1-6.012-1.048c-8.017-2.361-14.562-7.9-21.723-11.977-2.028-1.153-4.236-2.148-6.622-1.72a7.81 7.81 0 0 0-5.477 4.9 25.52 25.52 0 0 0-1.724 15.68c.61 2.51 4.473 1.451 3.857-1.053z" class="F"/><path d="M344.747 97.862a2.856 2.856 0 0 0-2.915 1.164 2.772 2.772 0 0 0-.327 2.653 4.86 4.86 0 0 0 1.66 2.223c8.392 6.666 27.642 14.374 39.86 12.963a4.665 4.665 0 0 0 2.612-1.1 2.758 2.758 0 0 0 .753-2.354 2.439 2.439 0 0 0-2.041-1.775c-6.26-.306-18.388-3.12-26.687-7.343-8.837-4.493-11.007-6.293-12.915-6.431z" class="G"/><g class="F"><path d="M361.905 94.03c-.192-.136-.217-.15-.073-.041l-.3-.267a6.246 6.246 0 0 1-.552-.6c.168.209-.2-.293-.238-.355l-.381-.637a11.844 11.844 0 0 1-1.061-2.64l-.109-.379a.724.724 0 0 1 .007.321.691.691 0 0 1-.259.405c-.258.187-.657-.005-.215.216a6.362 6.362 0 0 0 1.014.332 9.037 9.037 0 0 0 4.114.365 15.528 15.528 0 0 0 1.527-.39l.745-.192.317-.063c-.184.024-.156.026.086.006 1.155.064 2.173.352 3.373.474.372.038-.064-.03-.19-.264a.767.767 0 0 1-.049-.56q-.105.336.008.051-.139.324-.275.65l-.3.736a10.8 10.8 0 0 1-.464 1.051l-.382.682c-.136.2-.137.2 0 .026a2.515 2.515 0 0 1-.227.235 2 2 0 0 0 2.829 2.829 8.555 8.555 0 0 0 1.767-2.941l.338-.819.153-.376.021-.054a4.393 4.393 0 0 0 .489-1.975 3.391 3.391 0 0 0-2.648-3.128 26.285 26.285 0 0 0-4.044-.6 10.853 10.853 0 0 0-3.543.638c-.117.03-.7.119-.335.093a5 5 0 0 1-.963-.023 10.365 10.365 0 0 1-1.787-.468c-1.432-.47-2.881-.627-4.063.53a3.6 3.6 0 0 0-.727 3.848 12.137 12.137 0 0 0 4.386 6.738 2 2 0 1 0 2.019-3.454z"/><path d="M372.241 99.25a.739.739 0 0 0 .258-.2 1.012 1.012 0 0 0 .145-.622 12.966 12.966 0 0 0-.156-2.093c-.093-.587-.33-1.278-.91-1.4a1.633 1.633 0 0 0-.776.1 24.5 24.5 0 0 1-11.372.518 1.628 1.628 0 0 0-1.935 1.583l.039 1.169a1.875 1.875 0 0 0 1.668 1.733c3 .321 9.477.724 12.865-.7.058-.033.117-.058.174-.088z"/><path d="M370.253 102.28l.382.278c.184.128-.174-.147.105.08l.675.57a14.77 14.77 0 0 1 1.171 1.163c.111.123.469.423.5.592-.035-.181-.168-.227.008.013l.213.3a11.765 11.765 0 0 1 .734 1.212l.3.612c.125.265.012-.068-.042-.109a1.557 1.557 0 0 1 .144.369 11.8 11.8 0 0 1 .367 1.173 14.56 14.56 0 0 1 .254 1.236c.056.33-.025.062-.011-.1a1.772 1.772 0 0 0 .035.308l.054.676a2 2 0 1 0 4 0 15.156 15.156 0 0 0-1.646-6.183 16.6 16.6 0 0 0-5.225-5.644 2.008 2.008 0 0 0-2.736.717 2.055 2.055 0 0 0 .718 2.737z"/><path d="M344.747 95.862a5.042 5.042 0 0 0-4.833 2.453c-1.188 2.065-.443 4.616 1.071 6.287a20.612 20.612 0 0 0 4.121 3.129l4.571 2.658a76.7 76.7 0 0 0 23.051 7.985c3.616.592 7.554 1.061 11.192.366a5.311 5.311 0 0 0 4.394-3.913 4.274 4.274 0 0 0-2.769-4.924c-1.43-.525-3.192-.4-4.7-.618-1.879-.278-3.746-.641-5.6-1.061a84.429 84.429 0 0 1-12.269-3.727 105.759 105.759 0 0 1-12.23-6.16c-1.877-1.038-3.813-2.292-6-2.475-2.565-.214-2.551 3.787 0 4 .325.028-.494-.137-.1-.012.115.036.239.053.356.085s.252.085.379.124c.365.112.183.07.118.04.746.342 1.468.728 2.188 1.122l8.523 4.577a77.66 77.66 0 0 0 20.79 6.871q2.325.443 4.675.729c.524.064 2.675-.006 2.777.511.313 1.577-6.54 1.074-7.42 1A64.383 64.383 0 0 1 357.3 109.6a68.712 68.712 0 0 1-9.531-4.913 23.2 23.2 0 0 1-3.589-2.545c-.456-.426-1.068-1.171-.8-1.84.212-.527.74-.46 1.371-.436 2.57.096 2.566-3.904-.004-4.004z"/></g><path d="M259.968 116.25a15.789 15.789 0 0 1 1.223-4.738c1.734-3.884 5.17-9.017 10.714-10.126-4.377-3.758-5.84-10.781-3.617-16.182 2.363-5.741 8.877-8.6 14.822-8.6 6.528 0 12.476 2.86 14.837 8.6 2.217 5.387.769 12.386-3.589 16.158l.876.261c4.973 1.484 8.106 6.238 9.736 9.889 2.807 6.287 1 15.978-3.629 20.442A17.688 17.688 0 0 1 298 134.5a9.148 9.148 0 0 1-4.731 1.225H272.9a9.709 9.709 0 0 1-4.731-1.225 17.656 17.656 0 0 1-3.344-2.541c-3.581-3.449-5.47-10.005-4.857-15.709z" class="G"/><path d="M302.8,112.707l8.568-7.095a2.008,2.008,0,0,0,0-2.829,2.056,2.056,0,0,0-2.829,0l-8.568,7.095a2.008,2.008,0,0,0,0,2.829,2.057,2.057,0,0,0,2.829,0Z" class="F"/><path d="M321.6 99.689a5.315 5.315 0 0 0-2.444-4.567 4.309 4.309 0 0 0-5.353.79 2.013 2.013 0 0 0-2.265-1.547 3.212 3.212 0 0 0-2.3 1.82 6.574 6.574 0 0 0-.562 3.527 2.712 2.712 0 0 0-.953 1.519c-.009.614 1.418 2.109 2 2.737.941 1.011 1.972 2.043 2.623 2.007a6.867 6.867 0 0 0 1.515-.441l2.837-1.068a12.166 12.166 0 0 0 3.541-1.8 3.285 3.285 0 0 0 1.335-2.517 4.09 4.09 0 0 0 .026-.46zm-77.1 1.945a5.315 5.315 0 0 1 2.443-4.567 4.31 4.31 0 0 1 5.354.789 2.013 2.013 0 0 1 2.265-1.546 3.21 3.21 0 0 1 2.3 1.82 6.572 6.572 0 0 1 .562 3.527 2.709 2.709 0 0 1 .953 1.519c.009.614-1.418 2.108-2 2.736-.941 1.012-1.972 2.043-2.623 2.008a6.922 6.922 0 0 1-1.515-.441l-2.837-1.068a12.209 12.209 0 0 1-3.542-1.8 3.288 3.288 0 0 1-1.334-2.517 3.88 3.88 0 0 1-.026-.46z" class="H"/><g class="F"><path d="M323.6 99.689a7.238 7.238 0 0 0-3.943-6.548 6.319 6.319 0 0 0-7.268 1.356l3.342.883c-.534-2.775-4.007-3.755-6.229-2.357s-3.043 4.181-2.823 6.689l.586-1.414c-.959.936-1.825 2.241-1.439 3.644a6.708 6.708 0 0 0 1.551 2.409c1.247 1.45 2.948 3.678 5.046 3.616a10.743 10.743 0 0 0 3.264-.99l3.557-1.394a8.788 8.788 0 0 0 2.884-1.937 5.781 5.781 0 0 0 1.472-3.957 2 2 0 0 0-4 0 2.224 2.224 0 0 1-.067.645c-.009.039-.213.5-.092.323a3.1 3.1 0 0 1-1.168.947 19.99 19.99 0 0 1-3.133 1.322l-1.942.731-.706.243-.365.1a1.049 1.049 0 0 1 .5.013c.238.111.248.107.031-.01q-.273-.191-.09-.052a7.5 7.5 0 0 1-.706-.651l-1.033-1.087-.849-.963q-.219-.273-.01-.007-.1-.129-.186-.264c-.114-.175-.261-.668-.1-.1a1.2 1.2 0 0 1-.077.844c.132-.189.147-.231.047-.127.218-.325.55-.526.753-.874a4.861 4.861 0 0 0 .253-2.271c.016-.14.013-.153-.01-.041l.084-.449.115-.435q.135-.347.027-.137a2.876 2.876 0 0 1 .411-.718c-.248.308.484-.381.15-.139a2.938 2.938 0 0 1 .347-.2q-.253.114.087 0c-.213.021-.2.028.026.021-.232-.04-.232-.032 0 .021q-.293-.145.016.017c-.159-.145-.154-.14.013.016q-.186-.274-.007.017-.135-.315-.045.022a2.012 2.012 0 0 0 3.343.883 4.431 4.431 0 0 1 .4-.4c-.277.243.14-.071.2-.118.367-.261-.225.032.206-.1l.545-.149c.5-.115-.29-.031.222-.016l.57.017c-.4-.034.165.047.217.061.033.009.576.214.235.058a2.552 2.552 0 0 1 1.325 1.228 3.655 3.655 0 0 1 .463 1.79 2 2 0 1 0 4 0zm-57.471 12.134l-8.568-7.095a2.047 2.047 0 0 0-2.829 0 2.024 2.024 0 0 0 0 2.828l8.568 7.1a2.048 2.048 0 0 0 2.829 0 2.025 2.025 0 0 0 0-2.829z"/><path d="M246.5 101.634a3.4 3.4 0 0 1 .463-1.79 2.582 2.582 0 0 1 1.325-1.228c-.308.143.154-.037.235-.058s.622-.1.217-.062c.19-.017.381 0 .57-.016.4-.024-.2-.086.221.016l.546.148c.338.1-.053-.046.123.061l.343.2c-.1-.08-.076-.052.083.086a3.37 3.37 0 0 1 .257.277 2.012 2.012 0 0 0 3.343-.883q.09-.338-.045-.022.179-.291-.007-.017c.167-.156.172-.161.013-.016q.309-.162.016-.017.35-.081 0-.022c.231.007.239 0 .025-.02.228.075.257.074.088 0a2.931 2.931 0 0 1 .347.2c-.334-.242.4.448.15.14a2.87 2.87 0 0 1 .411.717c-.073-.139-.063-.093.027.138l.115.435c0-.021.093.658.066.374.076.8-.167 1.656.261 2.387.2.348.535.548.753.874-.1-.1-.085-.062.047.127a1.2 1.2 0 0 1-.077-.844c.165-.568.018-.075-.1.1l-.186.265q.208-.265-.01.007l-.849.963-1.034 1.086a7.249 7.249 0 0 1-.7.652c.122-.093.092-.075-.09.052q-.326.175.031.01a1.049 1.049 0 0 1 .495-.014l-.365-.1-.706-.243-1.813-.683a20.919 20.919 0 0 1-3.262-1.371 3.087 3.087 0 0 1-1.168-.947c.121.177-.083-.283-.093-.322a2.263 2.263 0 0 1-.066-.645 2 2 0 1 0-4 0 5.781 5.781 0 0 0 1.472 3.957 8.752 8.752 0 0 0 2.884 1.937l3.557 1.394a10.743 10.743 0 0 0 3.264.99c2.1.062 3.8-2.166 5.046-3.616a6.984 6.984 0 0 0 1.551-2.41c.417-1.381-.5-2.727-1.439-3.643l.586 1.414c.22-2.508-.6-5.288-2.823-6.689s-5.695-.419-6.229 2.357l3.342-.883a6.317 6.317 0 0 0-7.268-1.357 7.244 7.244 0 0 0-3.943 6.549 2 2 0 0 0 4 0zm42.492-13.892a2.181 2.181 0 0 0-2.188 2.244 2.145 2.145 0 0 0 2.188 2.286 2.123 2.123 0 0 0 2.188-2.286 2.178 2.178 0 0 0-2.188-2.244zm-11.415 0a2.18 2.18 0 0 0-2.187 2.244 2.145 2.145 0 0 0 2.187 2.286 2.123 2.123 0 0 0 2.188-2.286 2.178 2.178 0 0 0-2.188-2.244zm-4.293 12.199a12.692 12.692 0 0 1-3.913-11.168 11.37 11.37 0 0 1 7.151-8.857c7.086-3 17.706-.981 20.006 7.31a12.721 12.721 0 0 1-3.576 12.715c-1.925 1.717.912 4.538 2.828 2.828a16.643 16.643 0 0 0 4.992-14.71 15.151 15.151 0 0 0-8.883-11.631c-9.333-4.163-23.2-1.031-26.085 9.9a16.738 16.738 0 0 0 4.652 16.437c1.915 1.709 4.754-1.11 2.828-2.828z"/><path d="M270.4 99.7c-7.968 2.523-12.833 11.535-12.525 19.563.324 8.434 5.529 18.318 15.064 18.462 6.107.093 12.222 0 18.329 0a18.236 18.236 0 0 0 5.4-.48 15.657 15.657 0 0 0 6.3-4.081 19.765 19.765 0 0 0 5-10.734 21.136 21.136 0 0 0-1.913-13.266c-2.2-4.254-5.621-7.988-10.285-9.464-2.459-.779-3.512 3.081-1.063 3.857 6.509 2.061 9.959 9.87 9.563 16.234a18.092 18.092 0 0 1-3.17 9.409 13.243 13.243 0 0 1-4.114 3.565 9.282 9.282 0 0 1-4.883.952h-17.436a23.4 23.4 0 0 1-2.688-.046 9.9 9.9 0 0 1-5.425-2.833 15.523 15.523 0 0 1-4.345-8.609 16.833 16.833 0 0 1 1.216-10.78c1.712-3.408 4.266-6.707 8.034-7.9 2.445-.775 1.4-4.638-1.064-3.857z"/></g><path d="M299.009 113.8a50.013 50.013 0 0 0-5.062-8.46 14.455 14.455 0 0 0 2.553-2.24 3.9 3.9 0 0 0 1.053-3.088c-.1-1.306-1.372-1.929-2.759-1.567a61.19 61.19 0 0 1-25.222 1.132c-1.774.568-2.387 3.09-.852 4.169a27.133 27.133 0 0 0 5.456 2.67 28.86 28.86 0 0 0 14.632 1.123l.007.089.312 7.707a.614.614 0 0 0 .141.437.687.687 0 0 0 .537.127 57.411 57.411 0 0 0 8.694-1.109c.279-.057.609-.165.673-.442a.88.88 0 0 0-.163-.548z" class="H"/><g class="F"><path d="M286.811 107.5l.31 6.175.008 1.611a2.513 2.513 0 0 0 1.784 2.385 5.464 5.464 0 0 0 1.827.045q.885-.06 1.769-.146l3.847-.494a14.11 14.11 0 0 0 3.272-.7 2.428 2.428 0 0 0 1.5-1.893 3.753 3.753 0 0 0-.564-2.171l-1.412-2.733a64.34 64.34 0 0 0-3.622-5.57 2.044 2.044 0 0 0-2.736-.717 2.024 2.024 0 0 0-.718 2.736l2.895 4.328q.645 1.062 1.228 2.159.3.561.579 1.131l.332.685.167.354q.306.668-.085-.891l.514-.882c-.3.383.862-.293.374-.209l-.531.111q-.613.121-1.232.23-.566.1-1.133.188-.309.048-.62.093l-.31.043a.41.41 0 0 1 .014 0l-2.388.259q-.624.054-1.25.095l-.521.031-.313.017q-.532-.006.473.146l.717.718q.143.918.133.466v-.316-.411q0-.544-.01-1.087-.015-.974-.057-1.946l-.248-3.841a2 2 0 1 0-4 0z"/><path d="M269.036 101.377a66.661 66.661 0 0 0 13.789.792c2.2-.117 4.388-.359 6.564-.695q1.611-.251 3.207-.587a22.7 22.7 0 0 1 2.922-.679c.209-.015.145.061.053-.106.1.192-.03.583-.1.794a5.4 5.4 0 0 1-1.72 1.974 11.731 11.731 0 0 1-5.153 2.548 25.749 25.749 0 0 1-16.42-2.137c-.227-.107-3.317-1.42-2.075-1.9a2.06 2.06 0 0 0 1.4-2.46 2.015 2.015 0 0 0-2.461-1.4 4.65 4.65 0 0 0-3.091 5.282c.531 2.478 3.332 3.579 5.416 4.473a30.857 30.857 0 0 0 13.953 2.571 19.9 19.9 0 0 0 7.744-1.767 13.9 13.9 0 0 0 5.65-4.743c1.252-2.067 1.292-5.268-1.047-6.589a4.8 4.8 0 0 0-3.4-.36l-4.554 1a59.714 59.714 0 0 1-19.6.133 2.064 2.064 0 0 0-2.461 1.4 2.017 2.017 0 0 0 1.384 2.456z"/></g><path d="M298.754 67.406a19.58 19.58 0 0 0-2.991-3.46 11.634 11.634 0 0 0-8.563-2.756 15.432 15.432 0 0 0-8.293 3.766 45.956 45.956 0 0 0-6.241 6.8l.657.144a21.861 21.861 0 0 1 2.863-1.1 24.709 24.709 0 0 1 10.415-.262c3.7 1.065 7.127 2.631 9.2 4.56.922.857 1.691 1.594 2.282 2.263l1.189.262a4.114 4.114 0 0 1 5.057-.916 65.74 65.74 0 0 0-5.575-9.301z" class="H"/><path d="M274.085,73.173c3.771-4.707,8.908-11.173,15.783-9.887,3.161.592,5.335,2.595,7.159,5.129a66.952,66.952,0,0,1,5.582,9.3l2.736-2.736a6.206,6.206,0,0,0-7.481,1.229c-1.726,1.9,1.1,4.741,2.828,2.829a2.155,2.155,0,0,1,2.634-.6,2.017,2.017,0,0,0,2.736-2.737,63.775,63.775,0,0,0-6.325-10.306,14.638,14.638,0,0,0-9.2-6.031c-8.407-1.409-14.51,5.032-19.28,10.985a2.062,2.062,0,0,0,0,2.829,2.015,2.015,0,0,0,2.829,0Z" class="F"/><path d="M295.807 75.1c-2.075-1.929-5.5-3.494-9.2-4.56a24.709 24.709 0 0 0-10.415.262 19.053 19.053 0 0 0-6.856 3.642c-1.7 1.592-2.8 3.151-2.887 5.478a3.918 3.918 0 0 0 1.116 2.985 2.506 2.506 0 0 0 2.788.164c6.069-3.9 12.672-4.706 18.832-1.443 2.383 1.263 4.56 3.106 7.223 3.535a2.911 2.911 0 0 0 2.153-.326 2.7 2.7 0 0 0 .877-1.233 5.959 5.959 0 0 0-.12-4.338c-.395-1.184-1.642-2.431-3.511-4.166z" class="G"/><path d="M297.221 73.682a23.236 23.236 0 0 0-15.911-5.567c-5.764.152-12.36 2.362-15.576 7.49-1.578 2.515-1.994 6.536.414 8.713 2.97 2.684 6.2-.424 9.071-1.54a15.606 15.606 0 0 1 9.45-.764c3.153.788 5.547 2.832 8.444 4.159a8.159 8.159 0 0 0 5.314.892 4.886 4.886 0 0 0 3.266-4.236c.62-3.968-1.8-6.652-4.472-9.147-1.881-1.755-4.716 1.068-2.829 2.829 1.617 1.509 3.526 2.977 3.4 5.359-.018.332-.091 1.119-.4 1.318-.273.179-.955-.048-1.244-.126a13.751 13.751 0 0 1-3.5-1.71 24.715 24.715 0 0 0-7.118-3.243 19.284 19.284 0 0 0-7.749-.194 22.489 22.489 0 0 0-7.663 2.945c-.885.531-1.437.9-1.648-.386a4.262 4.262 0 0 1 .717-2.85c2.313-3.7 7.456-5.307 11.577-5.489 4.785-.212 9.985 1.1 13.627 4.376 1.909 1.719 4.747-1.101 2.83-2.829z" class="F"/><path d="M305.315 73.786a3.7 3.7 0 0 0-3.712 3.808 3.639 3.639 0 0 0 3.712 3.879 3.6 3.6 0 0 0 3.712-3.879 3.7 3.7 0 0 0-3.712-3.808z" class="G"/><path d="M305.315 71.786a5.75 5.75 0 0 0-5.46 4.072 5.789 5.789 0 0 0 8.43 6.843 5.971 5.971 0 0 0 2.638-6.157 5.7 5.7 0 0 0-5.608-4.758 2 2 0 0 0 0 4l.328.013c.391.014-.421-.082-.162-.023l.547.143c.149.042.246.166-.2-.092.085.049.18.084.267.132l.17.1.163.108q.246.178-.172-.136c.1.12.243.216.351.334a1.772 1.772 0 0 0 .128.147c-.37-.325-.2-.273-.082-.093.091.137.164.281.243.424.175.32-.131-.4-.064-.161.031.112.078.22.11.331.047.163.065.331.107.494-.146-.567-.04-.313-.03-.121v.209c0 .175-.035.356-.027.53-.023-.532.052-.34.011-.129l-.067.29c-.042.156-.107.3-.152.457.185-.63.046-.126-.068.062l-.125.192c-.194.3.34-.379.091-.121l-.351.346c-.166.176.446-.306.156-.12l-.229.146-.16.088c-.185.1-.374.073.14-.05-.153.037-.3.1-.455.142l-.24.05c-.159.028-.065.017.284-.034l-.2.019a4.543 4.543 0 0 1-.522.006c-.085 0-.17-.018-.254-.02-.26-.008.547.108.188.019l-.466-.124c-.2-.065-.33-.219.127.064-.077-.048-.169-.082-.249-.126-.134-.075-.255-.17-.385-.25.548.337.14.1-.007-.051l-.183-.206c.373.358.214.3.119.145l-.279-.493c-.128-.213.182.511.071.165l-.092-.282a1.517 1.517 0 0 1-.109-.5s.048.552.033.218c0-.108-.016-.216-.018-.325v-.215c0-.206.134-.591-.027.021l.135-.588.064-.188c.1-.324-.241.484 0 .027a1.559 1.559 0 0 1 .31-.5s-.349.4-.131.177l.27-.279a1.816 1.816 0 0 0 .146-.129l-.173.135.163-.108.17-.1c.057-.032.477-.222.121-.069-.34.146-.021.017.046 0l.349-.091c.2-.043.314.034-.166.013.142.006.294-.022.437-.024a2 2 0 0 0 0-4z" class="F"/><path d="M124.63 136.129l.211.39q8.676 0 17.671-.008v-9.369l-6.308-.053c-5.189.02-7.043.426-9.328 1.52-3.1 1.483-3.409 5.372-2.275 7.466zm51.392-88.781c-16.555 13.844-34.055 28.937-49.946 43.534a3 3 0 0 0-.227 4.174l7.12 8a2.988 2.988 0 0 0 4.236.179Q156.27 85.7 175.988 68.882a3.016 3.016 0 0 1 3.909 0q19.716 16.815 38.781 34.357a2.988 2.988 0 0 0 4.236-.179l7.12-8a3 3 0 0 0-.227-4.174c-15.891-14.6-33.39-29.69-49.945-43.534a2.986 2.986 0 0 0-3.84-.004z" class="G"/><path d="M207.619 93.173q-14.65-13.188-29.677-25.954Q159.96 82.5 142.509 98.384v38.123l70.527-.054v-1.842l.008-36.525q-2.704-2.464-5.425-4.913z" class="H"/><path d="M162.93 95.339v29.888h29.891v-29.89l-29.891.002zm34.451-44.107v7.1h15.659v-7.1a1 1 0 0 0-1-1h-13.659a1 1 0 0 0-1 1z" class="G"/><path d="M213.04 74.234v-15.9h-15.659v3.856l15.658 13.621.001-1.577z" class="H"/><path d="M213.039 122.933v13.519l17.121-.013.2-1.743c.28-3.032.264-6.677-2.44-8.37a17.139 17.139 0 0 1-2.256-1.283c-1.244-1.079-1.269-2.875-1.855-4.364a6.925 6.925 0 0 0-8.266-3.659l-2.5.74z" class="G"/><g class="F"><path d="M211.039 98.086v36.525c0 2.574 4 2.578 4 0V98.086c0-2.574-4-2.578-4 0zm-70.527.814v35.66c0 2.574 4 2.578 4 0V98.9c0-2.574-4-2.578-4 0zm70.527-40.569v15.9c0 2.574 4 2.578 4 0v-15.9c0-2.574-4-2.578-4 0z"/><path d="M216.074 118.949a5.127 5.127 0 0 1 4.641.867 3.707 3.707 0 0 1 1.334 1.874 19.661 19.661 0 0 0 1.127 3.38 6.006 6.006 0 0 0 2.837 2.507 3.535 3.535 0 0 1 1.88 1.6 6.333 6.333 0 0 1 .56 2.379 21.535 21.535 0 0 1-.093 3.141h4l.068-1.214a2 2 0 1 0-4 0l-.068 1.214a2.021 2.021 0 0 0 2 2 2.042 2.042 0 0 0 2-2 13.729 13.729 0 0 0-.911-7.337 6.881 6.881 0 0 0-2.768-2.907 13.3 13.3 0 0 1-1.6-.823 2.1 2.1 0 0 1-.622-1.025 20.582 20.582 0 0 0-1.211-3.55 8.337 8.337 0 0 0-2.762-2.867 9.094 9.094 0 0 0-7.472-1.095c-2.458.742-1.41 4.6 1.063 3.857zM203.671 34.06c-1.207-.564-1.4-2.485-1.169-3.662a3.866 3.866 0 0 1 2.951-2.728 2.028 2.028 0 0 0 .882-3.343 2.6 2.6 0 0 1-.183-2.7 3.144 3.144 0 0 1 2.681-1.334c1.58-.091 2.831-2.215 1.415-3.414-.019-.016.135.263.132.221-.022-.268-.15-.546-.189-.819a14.22 14.22 0 0 1 0-2.006 7.311 7.311 0 0 1 1.858-4.495 7.953 7.953 0 0 1 4.936-2.28 7.668 7.668 0 0 1 2.38.147 6 6 0 0 1 1.582.617 2.065 2.065 0 0 0 2.829 0 2.014 2.014 0 0 0 0-2.829c-4.262-3.349-10.873-2.173-14.55 1.518a11.583 11.583 0 0 0-3.03 7.323c-.136 1.619-.159 4.263 1.223 5.432l1.414-3.414c-2.545.147-5.1 1.211-6.3 3.616a6.748 6.748 0 0 0 .97 7.249l.882-3.343a7.824 7.824 0 0 0-5.822 5.96c-.445 2.7.345 6.459 3.085 7.741a2.056 2.056 0 0 0 2.736-.717 2.017 2.017 0 0 0-.717-2.737zM230.5 9.9l.349.124c-.52-.167-.136-.064-.006 0l.707.4c.2.123.292.231.055.026l.333.293.321.328c.102.113.283.367.09.092a7.226 7.226 0 0 1 .536.878c.04.078.219.515.1.2l.192.563a7.738 7.738 0 0 1 .34 2.606 7.887 7.887 0 0 1-1.28 4.515l-.16.228a1 1 0 0 0 .035-.049l-.35.393-.364.353-.236.206c.214-.16-.2.128-.245.158q-.191.12-.388.227c-.056.03-.506.241-.213.115s-.214.069-.27.087a2.043 2.043 0 0 0-1.4 2.461 2.022 2.022 0 0 0 2.46 1.4c4.281-1.373 6.394-5.836 6.408-10.091.014-4.131-1.868-8.019-5.954-9.377A2.003 2.003 0 0 0 230.5 9.9zm-10.165 15.367a2.183 2.183 0 0 1 .055.263c-.018.007-.022-.466-.024-.12l.006.284v.174c.009-.278-.009.04-.026.108l-.077.3-.1.308c-.073.26.149-.253 0-.012l-.407.7c-.061.094-.167.217-.036.058l-.269.306c-.181.194-.383.362-.571.548.108-.107.241-.164.041-.039l-.33.206a7.59 7.59 0 0 1-.568.29c-.255.126.3-.1.027-.015l-.308.108a10.268 10.268 0 0 1-1.329.327c-.25.048-.073 0 .075-.007l-.295.027-.56.021c-.11 0-.706-.052-.352 0s-.142-.044-.239-.074c-1.356-.423-3.023 1.029-2.46 2.46a2.941 2.941 0 0 1 .106.321l.04.185q.04.225-.023-.2c.09.082.028.626.024.745 0 .158-.024.314-.032.471.024-.489 0-.014-.028.095q-.042.189-.1.375c-.031.1-.242.461-.078.245.216-.287-.119.115-.09.127l.113-.139-.151.174-.311.328-.134.138c.209-.204-.1.07-.162.107a3.762 3.762 0 0 1-.411.219c.431-.194-.082 0-.154.017a5.139 5.139 0 0 1-.551.1 2.005 2.005 0 0 0-1.4 2.46 2.064 2.064 0 0 0 2.461 1.4 5.986 5.986 0 0 0 4.313-3.085 6.843 6.843 0 0 0 .418-5.148l-2.461 2.46a7.658 7.658 0 0 0 3.5.038 8.976 8.976 0 0 0 3.4-1.277 7.2 7.2 0 0 0 3.306-7.443 2.017 2.017 0 0 0-2.46-1.4 2.043 2.043 0 0 0-1.4 2.46zm-24.954 25.965v7.1a2.03 2.03 0 0 0 2 2h15.659a2.029 2.029 0 0 0 2-2v-5.12-1.961a3.074 3.074 0 0 0-3.083-3.018c-3.674-.121-7.371 0-11.047 0-.751 0-1.5-.012-2.255 0a3.122 3.122 0 0 0-3.273 3 2.014 2.014 0 0 0 2 2 2.044 2.044 0 0 0 2-2c-.043.431-.462 1.142-.978 1a1.043 1.043 0 0 0 .125 0 4.485 4.485 0 0 0 .556 0h12.521a1.757 1.757 0 0 0 .4 0c.26-.066.734 1.561-.67-.293-.056-.074-.2-.844-.293-.638a2.274 2.274 0 0 0 0 .689v6.341l2-2h-15.662l2 2v-7.1c0-2.574-4-2.578-4 0z"/><path d="M174.608 45.934c-15.324 12.817-30.476 25.845-45.273 39.266-2.828 2.567-8.372 6.133-5.423 10.591a47.582 47.582 0 0 0 4.376 5.056c1.354 1.52 2.784 3.713 4.635 4.637a5.109 5.109 0 0 0 5.7-.833c1.981-1.685 3.846-3.529 5.77-5.279q5.606-5.1 11.266-10.135 5.753-5.118 11.561-10.17 2.859-2.487 5.731-4.957 1.389-1.2 2.782-2.387c.584-.5 1.492-1.7 2.373-1.553.854.138 1.791 1.328 2.425 1.871q1.485 1.272 2.967 2.548 2.871 2.472 5.728 4.96 5.806 5.056 11.555 10.177 5.749 5.121 11.44 10.3c1.814 1.652 3.555 3.533 5.521 5a5.014 5.014 0 0 0 5.663.21 12.628 12.628 0 0 0 2.3-2.286q1.172-1.3 2.331-2.6c1.365-1.535 3.249-3.154 4.179-5a5.065 5.065 0 0 0-.756-5.641 67.285 67.285 0 0 0-5.436-4.987q-11.187-10.13-22.623-19.988-5.627-4.864-11.3-9.679-2.893-2.457-5.8-4.9c-1.826-1.537-3.606-3.292-5.577-4.639a4.987 4.987 0 0 0-5.716.107 2.062 2.062 0 0 0-.717 2.736 2.015 2.015 0 0 0 2.736.718c.551-.408.928-.567 1.534-.214a20.965 20.965 0 0 1 2.571 2.153q2.621 2.2 5.233 4.409 5.388 4.554 10.739 9.153 10.574 9.089 20.974 18.376c3.388 3.032 6.905 5.99 10.139 9.187 1.288 1.273-.358 2.376-1.263 3.406q-2.163 2.463-4.363 4.895c-.442.489-.967 1.394-1.642 1.563-.748.187-1.28-.565-1.76-1q-2.61-2.4-5.232-4.781-5.244-4.767-10.538-9.48-10.678-9.508-21.554-18.793c-1.573-1.343-3.385-2.238-5.486-1.53-2.037.687-3.738 2.7-5.338 4.073q-5.377 4.617-10.707 9.29-10.747 9.416-21.3 19.067-1.263 1.155-2.523 2.312c-.463.425-.942 1.061-1.65.82-.673-.23-1.252-1.188-1.714-1.7q-1.092-1.211-2.177-2.428-1.026-1.152-2.044-2.311c-.524-.6-1.5-1.369-1.755-2.126-.193-.579.114-.894.492-1.28.812-.831 1.729-1.585 2.588-2.368 13.725-12.513 27.772-24.673 41.977-36.638q2.6-2.19 5.209-4.371c1.977-1.652-.866-4.469-2.828-2.827zm-48.28 89.132l-.1-.2q-.129-.286.067.162a2.265 2.265 0 0 0-.149-.448l-.112-.477c-.107-.565 0 .273-.013-.093v-1.042c.012-.351-.092.445.019-.128l.126-.523c.03-.106.085-.446.174-.512-.116.268-.128.3-.037.1q.06-.123.126-.243l.214-.353.16-.226c-.171.22-.187.246-.046.08l.4-.4c.168-.139.147-.127-.062.038l.247-.168a7.119 7.119 0 0 1 .934-.484l.195-.087q.288-.123-.186.078c.01-.042.343-.135.391-.153q.4-.149.8-.269a13.467 13.467 0 0 1 1.686-.378c.576-.092-.265.024.116-.019l.558-.062 1.244-.094 3.119-.08a2 2 0 0 0 0-4c-5.17.026-13.1.452-14.076 7.019a8.008 8.008 0 0 0 .746 4.977 2.015 2.015 0 0 0 2.736.717 2.045 2.045 0 0 0 .718-2.736zm34.505-39.727q0 14.945 0 29.888a2.03 2.03 0 0 0 2 2q14.946 0 29.891 0a2.029 2.029 0 0 0 2-2q0-14.944 0-29.89a2.029 2.029 0 0 0-2-2q-14.946 0-29.89 0c-2.574 0-2.579 4 0 4q14.944 0 29.89 0l-2-2q0 14.945 0 29.89l2-2q-14.946 0-29.891 0l2 2q0-14.945 0-29.888c0-2.574-4-2.578-4 0z"/><path d="M192.721 108.286q-14.946 0-29.891 0c-2.573 0-2.578 4 0 4q14.946 0 29.891 0c2.574 0 2.578-4 0-4zM175.777 95.34q0 14.944 0 29.89c0 2.574 4 2.578 4 0q0-14.946 0-29.89c0-2.574-4-2.579-4 0z"/></g><path d="M42.89 121.893H23.665a.894.894 0 0 1-.716-1.433l19.415-25.849a.9.9 0 0 0-.717-1.44l-7.377-.02a.9.9 0 0 1-.732-1.415L47.192 72.73a10.18 10.18 0 0 0 9.96 2.264c1.67-.48 3.22-1.33 4.9-1.74a12.432 12.432 0 0 1 9.64 1.45c3.03 1.71 5.55 3.67 9.06 4.35a10.162 10.162 0 0 0 6.8-1.274l10.075 13.942a.9.9 0 0 1-.727 1.428l-7.343.02a.9.9 0 0 0-.719 1.437l19.407 25.851a.9.9 0 0 1-.722 1.436z" class="I"/><path d="M57.152 74.993c1.67-.48 3.22-1.33 4.9-1.74a12.429 12.429 0 0 1 9.639 1.45c3.031 1.71 5.551 3.67 9.061 4.35a10.159 10.159 0 0 0 6.8-1.277l-8.353-11.61a.9.9 0 0 1 .73-1.424l6.28-.016a.9.9 0 0 0 .721-1.426L66.405 35.485a1 1 0 0 0-1.6 0l-7.908 10.639L44.28 63.299a.9.9 0 0 0 .72 1.427l6.243.016a.9.9 0 0 1 .723 1.433l-4.785 6.563.08.066a10.192 10.192 0 0 0 9.891 2.189zm-2.568 46.977h-.468v12.569 2.061l22.987-.017-.006-2.041v-12.569l-11.489.012-11.024-.015z" class="G"/><g class="F"><path d="M53.53 47.335Q48.753 53.8 44.006 60.3c-1.222 1.675-2.962 3.777-.956 5.664 1.022.962 2.51.766 3.8.77l2.031.005h.939.712q.72.087-.313-.578V65.1c-.089.606-1.033 1.505-1.411 2.023q-1.059 1.447-2.112 2.9-2.517 3.463-5.02 6.936-2.778 3.852-5.545 7.712-1.279 1.785-2.555 3.574C32.8 89.33 31.5 90.62 31.408 92a2.872 2.872 0 0 0 1.112 2.543 4.1 4.1 0 0 0 2.649.609l6.478.018-1.727-.991.717 1.441V93.6q-5.586 7.405-11.152 14.829-3.3 4.4-6.6 8.8c-1.067 1.424-2.621 2.886-1.9 4.814a2.958 2.958 0 0 0 2.73 1.85c4.383.257 8.859 0 13.248 0H92.6c4.891 0 9.817.173 14.706 0h.218a1.982 1.982 0 0 0 1.727-.991l.724-1.436a1.993 1.993 0 0 0 0-2.019q-5.43-7.2-10.835-14.419L94.1 98.31q-1.044-1.392-2.089-2.785c-.383-.51-1.335-1.39-1.427-1.993V94.6q-1.022.663-.3.573h.724 1.425l2.454-.007q1.89-.006 3.782-.007a1.98 1.98 0 0 0 1.727-.991h0a2 2 0 0 0 0-2.019L84.442 70.065l-2.036-2.831c-.4-.556-1.367-1.491-1.455-2.131v1.064l-.549.585h.479a4.756 4.756 0 0 0 1.186 0h1.838c1.133 0 2.559.212 3.6-.327a2.9 2.9 0 0 0 1.558-2.828c-.079-1.146-.971-2.057-1.617-2.944Q82.764 54.2 78.033 47.8a2.059 2.059 0 0 0-2.733-.72 2.014 2.014 0 0 0-.718 2.736q2.951 4 5.888 8 1.291 1.764 2.582 3.531.588.806 1.175 1.613c.256.352.892 1 .95 1.41v-1.059c.225-1.306 1.043-.332.236-.583a3.954 3.954 0 0 0-.843 0h-1.566a15.219 15.219 0 0 0-3.9.128 2.951 2.951 0 0 0-1.407 4.626c1.348 1.961 2.782 3.868 4.171 5.8Q87.34 80.9 92.829 88.5l4.115 5.656v-2.018h0l1.727-.991-4.643.009-3.018.009a5.515 5.515 0 0 0-3 .459c-3.007 1.865-.223 4.882 1.146 6.707q5.495 7.325 10.989 14.649 3.189 4.245 6.383 8.486v-2.019l-.723 1.436 1.726-.99h-83.11a3.465 3.465 0 0 0-.558 0c-.664.112.589-.856.833.579v1.063c.068-.456.755-1.1 1.039-1.482l1.326-1.77 2.6-3.469q2.82-3.757 5.641-7.513 4.391-5.844 8.788-11.682a1.993 1.993 0 0 0 0-2.019l-.717-1.441a1.984 1.984 0 0 0-1.727-.99l-3.987-.011-1.708-.005h-.783-.368q-.823-.069.61.849l-.273 1.009a33.309 33.309 0 0 1 2.993-4.283q1.7-2.373 3.4-4.741 3.357-4.672 6.731-9.333 2.547-3.516 5.112-7.021c1.212-1.649.888-4.111-1.294-4.768a13.453 13.453 0 0 0-3.656-.128l-1.785-.005H45.8q-.986-.137.24.584v1.064c.056-.4.585-.908.845-1.265q.546-.75 1.094-1.5 1.331-1.821 2.665-3.64 3.165-4.314 6.345-8.618a2.014 2.014 0 0 0-.718-2.736 2.046 2.046 0 0 0-2.736.717z"/><use xlink:href="#C" x="-358.839"/><use xlink:href="#C" x="-381.816"/></g><path d="M54.544 40.127l3.653-5.49a.094.094 0 0 0 0-.1l-3.66-5.5a.093.093 0 0 1 .072-.152l6.819-.068a.094.094 0 0 0 .085-.054q1.642-3.369 3.6-6.571a.1.1 0 0 1 .167 0l3.731 6.573a.087.087 0 0 0 .082.051l7.22.071a.094.094 0 0 1 .073.152l-3.662 5.5a.094.094 0 0 0 0 .1l3.651 5.49a.094.094 0 0 1-.073.152l-7.237.068a.088.088 0 0 0-.083.051c-.7 1.427-3.061 5.438-3.7 6.523a.1.1 0 0 1-.167 0q-1.936-3.175-3.572-6.52a.092.092 0 0 0-.084-.054l-6.841-.069a.093.093 0 0 1-.074-.153z" fill="#ffda71"/><path d="M56.271 41.136l2.132-3.153c.62-.954 1.794-2.213 1.794-3.4 0-1.15-1.081-2.3-1.677-3.219l-2.256-3.346.273 1.01-.011-.1-.99 1.727.082-.052-1.009.273 3.754-.038c1.16-.015 2.753.239 3.836-.2 1.252-.51 1.726-2.266 2.318-3.376l2.323-4.068-.717.718.083-.048h-2.019l.083.047-.717-.717 3.511 6.143C68 31 69.39 30.8 71.105 30.822l5.208.057-1.013-.273.083.052-.99-1.727-.011.1.273-1.01-2.137 3.16c-.621.955-1.8 2.217-1.8 3.4 0 1.148 1.078 2.3 1.674 3.213l2.251 3.339-.274-1.01.011.1.99-1.727-.083.052 1.009-.273-5.026.054c-1.759.02-3.267-.242-4.238 1.481l-3.485 6.1.717-.717-.083.047H66.2l-.083-.047.717.717-2.305-4.035c-.589-1.106-1.061-2.85-2.307-3.357-1.084-.44-2.68-.186-3.841-.2l-3.771-.039 1.01.273-.083-.052.99 1.727.011-.1a2.013 2.013 0 0 0-2-2 2.045 2.045 0 0 0-2 2l-.011.1a1.977 1.977 0 0 0 .991 1.727c.995.624 2.723.337 3.855.351l4.078.043-1.009-.273.084.054-.718-.718q1.434 2.922 3.093 5.724c.537.9 1.092 1.834 2.29 1.834a2.288 2.288 0 0 0 1.924-1.231 65.934 65.934 0 0 0 3.588-6.329l-.718.717.083-.051-1.009.273 4.243-.04c1.194-.015 3.04.3 4.087-.353a1.98 1.98 0 0 0 .991-1.727c-.129-1.264-1.124-2.3-1.808-3.334l-2.127-3.265.273 1.009v-.1l-.273 1.009 2.132-3.272c.69-1.045 1.683-2.066 1.814-3.339a1.978 1.978 0 0 0-.991-1.727c-1.043-.651-2.885-.338-4.078-.354l-4.235-.042 1.01.273-.083-.051.718.718a66.525 66.525 0 0 0-3.617-6.379 2.294 2.294 0 0 0-1.915-1.237c-1.2 0-1.755.934-2.294 1.841q-1.677 2.82-3.117 5.769l.717-.717-.084.053 1.009-.273-4.07.043c-1.139.015-2.838-.278-3.841.35a1.977 1.977 0 0 0-.991 1.727c.134 1.267 1.125 2.3 1.812 3.339l2.132 3.273-.273-1.009v.1l.273-1.009-3.653 5.489a2.017 2.017 0 0 0 .717 2.737 2.044 2.044 0 0 0 2.734-.714zm-10.42 33.082a12.7 12.7 0 0 0 10.6 2.994c2-.367 3.772-1.363 5.711-1.919a10.3 10.3 0 0 1 5.494-.123c3.686.969 6.631 3.766 10.183 5.122a12.291 12.291 0 0 0 10.765-.817c2.2-1.329.192-4.789-2.019-3.454-6.578 3.979-12.17-3.428-18.255-4.805a14.342 14.342 0 0 0-5.32-.18 25.316 25.316 0 0 0-5.156 1.611c-3.261 1.216-6.421 1-9.175-1.257-1.976-1.618-4.822 1.2-2.828 2.828zM1.932 138.6q13.362 0 26.723-.009 20.694-.01 41.39-.025l52.008-.036 59.1-.045 62.779-.049 62.228-.049 58.264-.046 50.816-.039 39.241-.027q12.111-.009 24.222-.014h3.232c2.574 0 2.578-4 0-4q-9.986 0-19.97.009-18.037.011-36.075.025-24.09.017-48.179.036l-56.727.044-61.866.049-62.782.05q-30.138.023-60.276.045-27.153.021-54.3.039-22.089.015-44.177.028-15.308.009-30.617.013H1.932c-2.574 0-2.578 4 0 4z" class="F"/><defs ><path id="B" d="M325.6 37.115a4.236 4.236 0 0 0-4.25 4.359 4.167 4.167 0 0 0 4.25 4.441 4.124 4.124 0 0 0 4.25-4.441 4.232 4.232 0 0 0-4.25-4.359z"/><path id="C" d="M433.932,122.994q0,5.772,0,11.544a2,2,0,0,0,4,0q0-5.772,0-11.544a2,2,0,0,0-4,0Z"/></defs></svg>